<mxfile host="app.diagrams.net" modified="2023-05-04T01:46:59.632Z" agent="Mozilla/5.0 (Windows NT 10.0; Win64; x64) AppleWebKit/537.36 (KHTML, like Gecko) Chrome/111.0.0.0 Safari/537.36 OPR/97.0.0.0" etag="HC8sdZiwP2asfmeGUjro" version="21.2.6" type="github" pages="6">
  <diagram id="Nuijkc5xVWV2Awu1ugBu" name="Architecture">
    <mxGraphModel dx="1393" dy="766" grid="1" gridSize="10" guides="1" tooltips="1" connect="1" arrows="1" fold="1" page="1" pageScale="1" pageWidth="850" pageHeight="1100" math="0" shadow="0">
      <root>
        <mxCell id="0" />
        <mxCell id="1" parent="0" />
        <mxCell id="3LU14u6O0pRQWlCDdZOi-9" style="edgeStyle=orthogonalEdgeStyle;rounded=0;orthogonalLoop=1;jettySize=auto;html=1;exitX=1;exitY=0.5;exitDx=0;exitDy=0;entryX=0;entryY=0.5;entryDx=0;entryDy=0;" parent="1" source="3LU14u6O0pRQWlCDdZOi-1" target="3LU14u6O0pRQWlCDdZOi-6" edge="1">
          <mxGeometry relative="1" as="geometry" />
        </mxCell>
        <mxCell id="3LU14u6O0pRQWlCDdZOi-10" style="edgeStyle=orthogonalEdgeStyle;rounded=0;orthogonalLoop=1;jettySize=auto;html=1;exitX=0.5;exitY=1;exitDx=0;exitDy=0;entryX=0.5;entryY=0;entryDx=0;entryDy=0;" parent="1" source="3LU14u6O0pRQWlCDdZOi-1" target="3LU14u6O0pRQWlCDdZOi-3" edge="1">
          <mxGeometry relative="1" as="geometry" />
        </mxCell>
        <mxCell id="3LU14u6O0pRQWlCDdZOi-11" style="edgeStyle=orthogonalEdgeStyle;rounded=0;orthogonalLoop=1;jettySize=auto;html=1;exitX=0.5;exitY=1;exitDx=0;exitDy=0;entryX=0.5;entryY=0;entryDx=0;entryDy=0;" parent="1" source="3LU14u6O0pRQWlCDdZOi-1" target="3LU14u6O0pRQWlCDdZOi-2" edge="1">
          <mxGeometry relative="1" as="geometry" />
        </mxCell>
        <mxCell id="3LU14u6O0pRQWlCDdZOi-12" style="edgeStyle=orthogonalEdgeStyle;rounded=0;orthogonalLoop=1;jettySize=auto;html=1;exitX=0.5;exitY=1;exitDx=0;exitDy=0;entryX=0.5;entryY=0;entryDx=0;entryDy=0;" parent="1" source="3LU14u6O0pRQWlCDdZOi-1" target="3LU14u6O0pRQWlCDdZOi-4" edge="1">
          <mxGeometry relative="1" as="geometry" />
        </mxCell>
        <mxCell id="3LU14u6O0pRQWlCDdZOi-1" value="Simulation Controller" style="rounded=0;whiteSpace=wrap;html=1;" parent="1" vertex="1">
          <mxGeometry x="365" y="110" width="120" height="60" as="geometry" />
        </mxCell>
        <mxCell id="3LU14u6O0pRQWlCDdZOi-2" value="Transit Controller" style="rounded=0;whiteSpace=wrap;html=1;" parent="1" vertex="1">
          <mxGeometry x="365" y="210" width="120" height="60" as="geometry" />
        </mxCell>
        <mxCell id="3LU14u6O0pRQWlCDdZOi-3" value="Stop Controller" style="rounded=0;whiteSpace=wrap;html=1;" parent="1" vertex="1">
          <mxGeometry x="200" y="210" width="120" height="60" as="geometry" />
        </mxCell>
        <mxCell id="3LU14u6O0pRQWlCDdZOi-4" value="Intersection Controller" style="rounded=0;whiteSpace=wrap;html=1;" parent="1" vertex="1">
          <mxGeometry x="530" y="210" width="120" height="60" as="geometry" />
        </mxCell>
        <mxCell id="3LU14u6O0pRQWlCDdZOi-8" style="edgeStyle=orthogonalEdgeStyle;rounded=0;orthogonalLoop=1;jettySize=auto;html=1;exitX=0.5;exitY=1;exitDx=0;exitDy=0;entryX=0;entryY=0.5;entryDx=0;entryDy=0;" parent="1" source="3LU14u6O0pRQWlCDdZOi-5" target="3LU14u6O0pRQWlCDdZOi-1" edge="1">
          <mxGeometry relative="1" as="geometry" />
        </mxCell>
        <mxCell id="3LU14u6O0pRQWlCDdZOi-5" value="Input Module" style="rounded=0;whiteSpace=wrap;html=1;" parent="1" vertex="1">
          <mxGeometry x="200" y="20" width="120" height="60" as="geometry" />
        </mxCell>
        <mxCell id="3LU14u6O0pRQWlCDdZOi-13" style="edgeStyle=orthogonalEdgeStyle;rounded=0;orthogonalLoop=1;jettySize=auto;html=1;exitX=0.5;exitY=0;exitDx=0;exitDy=0;entryX=0.5;entryY=1;entryDx=0;entryDy=0;" parent="1" source="3LU14u6O0pRQWlCDdZOi-6" target="3LU14u6O0pRQWlCDdZOi-7" edge="1">
          <mxGeometry relative="1" as="geometry" />
        </mxCell>
        <mxCell id="3LU14u6O0pRQWlCDdZOi-6" value="Statistical Module" style="rounded=0;whiteSpace=wrap;html=1;" parent="1" vertex="1">
          <mxGeometry x="530" y="110" width="120" height="60" as="geometry" />
        </mxCell>
        <mxCell id="3LU14u6O0pRQWlCDdZOi-7" value="Output Module" style="rounded=0;whiteSpace=wrap;html=1;" parent="1" vertex="1">
          <mxGeometry x="530" y="20" width="120" height="60" as="geometry" />
        </mxCell>
      </root>
    </mxGraphModel>
  </diagram>
  <diagram id="C5RBs43oDa-KdzZeNtuy" name="Class Diagram">
    <mxGraphModel dx="1393" dy="766" grid="1" gridSize="10" guides="1" tooltips="1" connect="1" arrows="1" fold="1" page="1" pageScale="1" pageWidth="827" pageHeight="1169" math="0" shadow="0">
      <root>
        <mxCell id="WIyWlLk6GJQsqaUBKTNV-0" />
        <mxCell id="WIyWlLk6GJQsqaUBKTNV-1" parent="WIyWlLk6GJQsqaUBKTNV-0" />
        <mxCell id="dwd0F4F75qhodI4OeOmQ-28" value="Passanger" style="swimlane;fontStyle=0;childLayout=stackLayout;horizontal=1;startSize=26;fillColor=none;horizontalStack=0;resizeParent=1;resizeParentMax=0;resizeLast=0;collapsible=1;marginBottom=0;whiteSpace=wrap;html=1;" parent="WIyWlLk6GJQsqaUBKTNV-1" vertex="1">
          <mxGeometry x="420" y="40" width="140" height="182" as="geometry" />
        </mxCell>
        <mxCell id="dwd0F4F75qhodI4OeOmQ-29" value="- id: Integer" style="text;strokeColor=none;fillColor=none;align=left;verticalAlign=top;spacingLeft=4;spacingRight=4;overflow=hidden;rotatable=0;points=[[0,0.5],[1,0.5]];portConstraint=eastwest;whiteSpace=wrap;html=1;" parent="dwd0F4F75qhodI4OeOmQ-28" vertex="1">
          <mxGeometry y="26" width="140" height="26" as="geometry" />
        </mxCell>
        <mxCell id="dwd0F4F75qhodI4OeOmQ-30" value="- route: Route" style="text;strokeColor=none;fillColor=none;align=left;verticalAlign=top;spacingLeft=4;spacingRight=4;overflow=hidden;rotatable=0;points=[[0,0.5],[1,0.5]];portConstraint=eastwest;whiteSpace=wrap;html=1;" parent="dwd0F4F75qhodI4OeOmQ-28" vertex="1">
          <mxGeometry y="52" width="140" height="26" as="geometry" />
        </mxCell>
        <mxCell id="dwd0F4F75qhodI4OeOmQ-31" value="- t_in: Integer" style="text;strokeColor=none;fillColor=none;align=left;verticalAlign=top;spacingLeft=4;spacingRight=4;overflow=hidden;rotatable=0;points=[[0,0.5],[1,0.5]];portConstraint=eastwest;whiteSpace=wrap;html=1;" parent="dwd0F4F75qhodI4OeOmQ-28" vertex="1">
          <mxGeometry y="78" width="140" height="26" as="geometry" />
        </mxCell>
        <mxCell id="dwd0F4F75qhodI4OeOmQ-32" value="- origin: Stop" style="text;strokeColor=none;fillColor=none;align=left;verticalAlign=top;spacingLeft=4;spacingRight=4;overflow=hidden;rotatable=0;points=[[0,0.5],[1,0.5]];portConstraint=eastwest;whiteSpace=wrap;html=1;" parent="dwd0F4F75qhodI4OeOmQ-28" vertex="1">
          <mxGeometry y="104" width="140" height="26" as="geometry" />
        </mxCell>
        <mxCell id="dwd0F4F75qhodI4OeOmQ-33" value="- destiny: Stop" style="text;strokeColor=none;fillColor=none;align=left;verticalAlign=top;spacingLeft=4;spacingRight=4;overflow=hidden;rotatable=0;points=[[0,0.5],[1,0.5]];portConstraint=eastwest;whiteSpace=wrap;html=1;" parent="dwd0F4F75qhodI4OeOmQ-28" vertex="1">
          <mxGeometry y="130" width="140" height="26" as="geometry" />
        </mxCell>
        <mxCell id="dwd0F4F75qhodI4OeOmQ-34" value="- position: Coords" style="text;strokeColor=none;fillColor=none;align=left;verticalAlign=top;spacingLeft=4;spacingRight=4;overflow=hidden;rotatable=0;points=[[0,0.5],[1,0.5]];portConstraint=eastwest;whiteSpace=wrap;html=1;" parent="dwd0F4F75qhodI4OeOmQ-28" vertex="1">
          <mxGeometry y="156" width="140" height="26" as="geometry" />
        </mxCell>
        <mxCell id="dwd0F4F75qhodI4OeOmQ-36" value="Route" style="swimlane;fontStyle=0;childLayout=stackLayout;horizontal=1;startSize=26;fillColor=none;horizontalStack=0;resizeParent=1;resizeParentMax=0;resizeLast=0;collapsible=1;marginBottom=0;whiteSpace=wrap;html=1;" parent="WIyWlLk6GJQsqaUBKTNV-1" vertex="1">
          <mxGeometry x="220" y="40" width="160" height="78" as="geometry" />
        </mxCell>
        <mxCell id="dwd0F4F75qhodI4OeOmQ-37" value="- id: String" style="text;strokeColor=none;fillColor=none;align=left;verticalAlign=top;spacingLeft=4;spacingRight=4;overflow=hidden;rotatable=0;points=[[0,0.5],[1,0.5]];portConstraint=eastwest;whiteSpace=wrap;html=1;" parent="dwd0F4F75qhodI4OeOmQ-36" vertex="1">
          <mxGeometry y="26" width="160" height="26" as="geometry" />
        </mxCell>
        <mxCell id="dwd0F4F75qhodI4OeOmQ-38" value="- route_stops: List&amp;lt;Stop&amp;gt;" style="text;strokeColor=none;fillColor=none;align=left;verticalAlign=top;spacingLeft=4;spacingRight=4;overflow=hidden;rotatable=0;points=[[0,0.5],[1,0.5]];portConstraint=eastwest;whiteSpace=wrap;html=1;" parent="dwd0F4F75qhodI4OeOmQ-36" vertex="1">
          <mxGeometry y="52" width="160" height="26" as="geometry" />
        </mxCell>
        <mxCell id="dwd0F4F75qhodI4OeOmQ-40" value="Stop" style="swimlane;fontStyle=0;childLayout=stackLayout;horizontal=1;startSize=26;fillColor=none;horizontalStack=0;resizeParent=1;resizeParentMax=0;resizeLast=0;collapsible=1;marginBottom=0;whiteSpace=wrap;html=1;" parent="WIyWlLk6GJQsqaUBKTNV-1" vertex="1">
          <mxGeometry x="600" y="40" width="180" height="130" as="geometry" />
        </mxCell>
        <mxCell id="dwd0F4F75qhodI4OeOmQ-41" value="- id: String" style="text;strokeColor=none;fillColor=none;align=left;verticalAlign=top;spacingLeft=4;spacingRight=4;overflow=hidden;rotatable=0;points=[[0,0.5],[1,0.5]];portConstraint=eastwest;whiteSpace=wrap;html=1;" parent="dwd0F4F75qhodI4OeOmQ-40" vertex="1">
          <mxGeometry y="26" width="180" height="26" as="geometry" />
        </mxCell>
        <mxCell id="dwd0F4F75qhodI4OeOmQ-42" value="- stops: Integer" style="text;strokeColor=none;fillColor=none;align=left;verticalAlign=top;spacingLeft=4;spacingRight=4;overflow=hidden;rotatable=0;points=[[0,0.5],[1,0.5]];portConstraint=eastwest;whiteSpace=wrap;html=1;" parent="dwd0F4F75qhodI4OeOmQ-40" vertex="1">
          <mxGeometry y="52" width="180" height="26" as="geometry" />
        </mxCell>
        <mxCell id="dwd0F4F75qhodI4OeOmQ-43" value="- passenger_count: Integer" style="text;strokeColor=none;fillColor=none;align=left;verticalAlign=top;spacingLeft=4;spacingRight=4;overflow=hidden;rotatable=0;points=[[0,0.5],[1,0.5]];portConstraint=eastwest;whiteSpace=wrap;html=1;" parent="dwd0F4F75qhodI4OeOmQ-40" vertex="1">
          <mxGeometry y="78" width="180" height="26" as="geometry" />
        </mxCell>
        <mxCell id="dwd0F4F75qhodI4OeOmQ-47" value="- passenger_limit: Integer" style="text;strokeColor=none;fillColor=none;align=left;verticalAlign=top;spacingLeft=4;spacingRight=4;overflow=hidden;rotatable=0;points=[[0,0.5],[1,0.5]];portConstraint=eastwest;whiteSpace=wrap;html=1;" parent="dwd0F4F75qhodI4OeOmQ-40" vertex="1">
          <mxGeometry y="104" width="180" height="26" as="geometry" />
        </mxCell>
        <mxCell id="RWj2YH0PV7CuDDnvpd_u-9" value="Bus" style="swimlane;fontStyle=1;align=center;verticalAlign=top;childLayout=stackLayout;horizontal=1;startSize=26;horizontalStack=0;resizeParent=1;resizeParentMax=0;resizeLast=0;collapsible=1;marginBottom=0;whiteSpace=wrap;html=1;fillColor=#d5e8d4;strokeColor=#82b366;" parent="WIyWlLk6GJQsqaUBKTNV-1" vertex="1">
          <mxGeometry x="20" y="160" width="220" height="554" as="geometry" />
        </mxCell>
        <mxCell id="RWj2YH0PV7CuDDnvpd_u-10" value="- Id: Integer" style="text;strokeColor=none;fillColor=none;align=left;verticalAlign=top;spacingLeft=4;spacingRight=4;overflow=hidden;rotatable=0;points=[[0,0.5],[1,0.5]];portConstraint=eastwest;whiteSpace=wrap;html=1;" parent="RWj2YH0PV7CuDDnvpd_u-9" vertex="1">
          <mxGeometry y="26" width="220" height="26" as="geometry" />
        </mxCell>
        <mxCell id="RWj2YH0PV7CuDDnvpd_u-22" value="- route: Route" style="text;strokeColor=none;fillColor=none;align=left;verticalAlign=top;spacingLeft=4;spacingRight=4;overflow=hidden;rotatable=0;points=[[0,0.5],[1,0.5]];portConstraint=eastwest;whiteSpace=wrap;html=1;" parent="RWj2YH0PV7CuDDnvpd_u-9" vertex="1">
          <mxGeometry y="52" width="220" height="26" as="geometry" />
        </mxCell>
        <mxCell id="RWj2YH0PV7CuDDnvpd_u-21" value="- passengers = List&amp;lt;Passenger&amp;gt;" style="text;strokeColor=none;fillColor=none;align=left;verticalAlign=top;spacingLeft=4;spacingRight=4;overflow=hidden;rotatable=0;points=[[0,0.5],[1,0.5]];portConstraint=eastwest;whiteSpace=wrap;html=1;" parent="RWj2YH0PV7CuDDnvpd_u-9" vertex="1">
          <mxGeometry y="78" width="220" height="26" as="geometry" />
        </mxCell>
        <mxCell id="RWj2YH0PV7CuDDnvpd_u-20" value="- door_n = Integer" style="text;strokeColor=none;fillColor=none;align=left;verticalAlign=top;spacingLeft=4;spacingRight=4;overflow=hidden;rotatable=0;points=[[0,0.5],[1,0.5]];portConstraint=eastwest;whiteSpace=wrap;html=1;" parent="RWj2YH0PV7CuDDnvpd_u-9" vertex="1">
          <mxGeometry y="104" width="220" height="26" as="geometry" />
        </mxCell>
        <mxCell id="RWj2YH0PV7CuDDnvpd_u-19" value="- top_speed = Float" style="text;strokeColor=none;fillColor=none;align=left;verticalAlign=top;spacingLeft=4;spacingRight=4;overflow=hidden;rotatable=0;points=[[0,0.5],[1,0.5]];portConstraint=eastwest;whiteSpace=wrap;html=1;" parent="RWj2YH0PV7CuDDnvpd_u-9" vertex="1">
          <mxGeometry y="130" width="220" height="26" as="geometry" />
        </mxCell>
        <mxCell id="RWj2YH0PV7CuDDnvpd_u-18" value="- acc = Float" style="text;strokeColor=none;fillColor=none;align=left;verticalAlign=top;spacingLeft=4;spacingRight=4;overflow=hidden;rotatable=0;points=[[0,0.5],[1,0.5]];portConstraint=eastwest;whiteSpace=wrap;html=1;" parent="RWj2YH0PV7CuDDnvpd_u-9" vertex="1">
          <mxGeometry y="156" width="220" height="26" as="geometry" />
        </mxCell>
        <mxCell id="RWj2YH0PV7CuDDnvpd_u-17" value="- desc = Float" style="text;strokeColor=none;fillColor=none;align=left;verticalAlign=top;spacingLeft=4;spacingRight=4;overflow=hidden;rotatable=0;points=[[0,0.5],[1,0.5]];portConstraint=eastwest;whiteSpace=wrap;html=1;" parent="RWj2YH0PV7CuDDnvpd_u-9" vertex="1">
          <mxGeometry y="182" width="220" height="26" as="geometry" />
        </mxCell>
        <mxCell id="RWj2YH0PV7CuDDnvpd_u-16" value="- capacity: Integer" style="text;strokeColor=none;fillColor=none;align=left;verticalAlign=top;spacingLeft=4;spacingRight=4;overflow=hidden;rotatable=0;points=[[0,0.5],[1,0.5]];portConstraint=eastwest;whiteSpace=wrap;html=1;" parent="RWj2YH0PV7CuDDnvpd_u-9" vertex="1">
          <mxGeometry y="208" width="220" height="26" as="geometry" />
        </mxCell>
        <mxCell id="RWj2YH0PV7CuDDnvpd_u-15" value="- next_stop = Stop:Node" style="text;strokeColor=none;fillColor=none;align=left;verticalAlign=top;spacingLeft=4;spacingRight=4;overflow=hidden;rotatable=0;points=[[0,0.5],[1,0.5]];portConstraint=eastwest;whiteSpace=wrap;html=1;" parent="RWj2YH0PV7CuDDnvpd_u-9" vertex="1">
          <mxGeometry y="234" width="220" height="26" as="geometry" />
        </mxCell>
        <mxCell id="RWj2YH0PV7CuDDnvpd_u-14" value="-&amp;nbsp;alighting_queue = List&amp;lt;Passengers&amp;gt;" style="text;strokeColor=none;fillColor=none;align=left;verticalAlign=top;spacingLeft=4;spacingRight=4;overflow=hidden;rotatable=0;points=[[0,0.5],[1,0.5]];portConstraint=eastwest;whiteSpace=wrap;html=1;" parent="RWj2YH0PV7CuDDnvpd_u-9" vertex="1">
          <mxGeometry y="260" width="220" height="26" as="geometry" />
        </mxCell>
        <mxCell id="RWj2YH0PV7CuDDnvpd_u-13" value="-&amp;nbsp;status = String" style="text;strokeColor=none;fillColor=none;align=left;verticalAlign=top;spacingLeft=4;spacingRight=4;overflow=hidden;rotatable=0;points=[[0,0.5],[1,0.5]];portConstraint=eastwest;whiteSpace=wrap;html=1;" parent="RWj2YH0PV7CuDDnvpd_u-9" vertex="1">
          <mxGeometry y="286" width="220" height="26" as="geometry" />
        </mxCell>
        <mxCell id="RWj2YH0PV7CuDDnvpd_u-27" value="- speed = Float" style="text;strokeColor=none;fillColor=none;align=left;verticalAlign=top;spacingLeft=4;spacingRight=4;overflow=hidden;rotatable=0;points=[[0,0.5],[1,0.5]];portConstraint=eastwest;whiteSpace=wrap;html=1;" parent="RWj2YH0PV7CuDDnvpd_u-9" vertex="1">
          <mxGeometry y="312" width="220" height="26" as="geometry" />
        </mxCell>
        <mxCell id="RWj2YH0PV7CuDDnvpd_u-26" value="- location = Node" style="text;strokeColor=none;fillColor=none;align=left;verticalAlign=top;spacingLeft=4;spacingRight=4;overflow=hidden;rotatable=0;points=[[0,0.5],[1,0.5]];portConstraint=eastwest;whiteSpace=wrap;html=1;" parent="RWj2YH0PV7CuDDnvpd_u-9" vertex="1">
          <mxGeometry y="338" width="220" height="26" as="geometry" />
        </mxCell>
        <mxCell id="RWj2YH0PV7CuDDnvpd_u-25" value="- position = Float" style="text;strokeColor=none;fillColor=none;align=left;verticalAlign=top;spacingLeft=4;spacingRight=4;overflow=hidden;rotatable=0;points=[[0,0.5],[1,0.5]];portConstraint=eastwest;whiteSpace=wrap;html=1;" parent="RWj2YH0PV7CuDDnvpd_u-9" vertex="1">
          <mxGeometry y="364" width="220" height="26" as="geometry" />
        </mxCell>
        <mxCell id="RWj2YH0PV7CuDDnvpd_u-11" value="" style="line;strokeWidth=1;fillColor=none;align=left;verticalAlign=middle;spacingTop=-1;spacingLeft=3;spacingRight=3;rotatable=0;labelPosition=right;points=[];portConstraint=eastwest;strokeColor=inherit;" parent="RWj2YH0PV7CuDDnvpd_u-9" vertex="1">
          <mxGeometry y="390" width="220" height="8" as="geometry" />
        </mxCell>
        <mxCell id="RWj2YH0PV7CuDDnvpd_u-12" value="-&amp;nbsp;update_position(tick:Int)" style="text;strokeColor=none;fillColor=none;align=left;verticalAlign=top;spacingLeft=4;spacingRight=4;overflow=hidden;rotatable=0;points=[[0,0.5],[1,0.5]];portConstraint=eastwest;whiteSpace=wrap;html=1;" parent="RWj2YH0PV7CuDDnvpd_u-9" vertex="1">
          <mxGeometry y="398" width="220" height="26" as="geometry" />
        </mxCell>
        <mxCell id="RWj2YH0PV7CuDDnvpd_u-23" value="-&amp;nbsp;update_speed (tick:Int)" style="text;strokeColor=none;fillColor=none;align=left;verticalAlign=top;spacingLeft=4;spacingRight=4;overflow=hidden;rotatable=0;points=[[0,0.5],[1,0.5]];portConstraint=eastwest;whiteSpace=wrap;html=1;" parent="RWj2YH0PV7CuDDnvpd_u-9" vertex="1">
          <mxGeometry y="424" width="220" height="26" as="geometry" />
        </mxCell>
        <mxCell id="RWj2YH0PV7CuDDnvpd_u-24" value="- assign_next_stop()" style="text;strokeColor=none;fillColor=none;align=left;verticalAlign=top;spacingLeft=4;spacingRight=4;overflow=hidden;rotatable=0;points=[[0,0.5],[1,0.5]];portConstraint=eastwest;whiteSpace=wrap;html=1;" parent="RWj2YH0PV7CuDDnvpd_u-9" vertex="1">
          <mxGeometry y="450" width="220" height="26" as="geometry" />
        </mxCell>
        <mxCell id="RWj2YH0PV7CuDDnvpd_u-28" value="-&amp;nbsp;generate_alighting_queue()" style="text;strokeColor=none;fillColor=none;align=left;verticalAlign=top;spacingLeft=4;spacingRight=4;overflow=hidden;rotatable=0;points=[[0,0.5],[1,0.5]];portConstraint=eastwest;whiteSpace=wrap;html=1;" parent="RWj2YH0PV7CuDDnvpd_u-9" vertex="1">
          <mxGeometry y="476" width="220" height="26" as="geometry" />
        </mxCell>
        <mxCell id="RWj2YH0PV7CuDDnvpd_u-30" value="-&amp;nbsp;board_passenger(passenger)" style="text;strokeColor=none;fillColor=none;align=left;verticalAlign=top;spacingLeft=4;spacingRight=4;overflow=hidden;rotatable=0;points=[[0,0.5],[1,0.5]];portConstraint=eastwest;whiteSpace=wrap;html=1;" parent="RWj2YH0PV7CuDDnvpd_u-9" vertex="1">
          <mxGeometry y="502" width="220" height="26" as="geometry" />
        </mxCell>
        <mxCell id="RWj2YH0PV7CuDDnvpd_u-29" value="-&amp;nbsp;disembark_passenger(passenger)" style="text;strokeColor=none;fillColor=none;align=left;verticalAlign=top;spacingLeft=4;spacingRight=4;overflow=hidden;rotatable=0;points=[[0,0.5],[1,0.5]];portConstraint=eastwest;whiteSpace=wrap;html=1;" parent="RWj2YH0PV7CuDDnvpd_u-9" vertex="1">
          <mxGeometry y="528" width="220" height="26" as="geometry" />
        </mxCell>
        <mxCell id="RWj2YH0PV7CuDDnvpd_u-31" value="Node" style="swimlane;fontStyle=1;align=center;verticalAlign=top;childLayout=stackLayout;horizontal=1;startSize=26;horizontalStack=0;resizeParent=1;resizeParentMax=0;resizeLast=0;collapsible=1;marginBottom=0;whiteSpace=wrap;html=1;fillColor=#d5e8d4;strokeColor=#82b366;" parent="WIyWlLk6GJQsqaUBKTNV-1" vertex="1">
          <mxGeometry x="1040" y="130" width="160" height="138" as="geometry" />
        </mxCell>
        <mxCell id="RWj2YH0PV7CuDDnvpd_u-32" value="-&amp;nbsp;prev_node: Node" style="text;strokeColor=none;fillColor=none;align=left;verticalAlign=top;spacingLeft=4;spacingRight=4;overflow=hidden;rotatable=0;points=[[0,0.5],[1,0.5]];portConstraint=eastwest;whiteSpace=wrap;html=1;" parent="RWj2YH0PV7CuDDnvpd_u-31" vertex="1">
          <mxGeometry y="26" width="160" height="26" as="geometry" />
        </mxCell>
        <mxCell id="RWj2YH0PV7CuDDnvpd_u-35" value="-&amp;nbsp;next_node: Node" style="text;strokeColor=none;fillColor=none;align=left;verticalAlign=top;spacingLeft=4;spacingRight=4;overflow=hidden;rotatable=0;points=[[0,0.5],[1,0.5]];portConstraint=eastwest;whiteSpace=wrap;html=1;" parent="RWj2YH0PV7CuDDnvpd_u-31" vertex="1">
          <mxGeometry y="52" width="160" height="26" as="geometry" />
        </mxCell>
        <mxCell id="RWj2YH0PV7CuDDnvpd_u-33" value="" style="line;strokeWidth=1;fillColor=none;align=left;verticalAlign=middle;spacingTop=-1;spacingLeft=3;spacingRight=3;rotatable=0;labelPosition=right;points=[];portConstraint=eastwest;strokeColor=inherit;" parent="RWj2YH0PV7CuDDnvpd_u-31" vertex="1">
          <mxGeometry y="78" width="160" height="8" as="geometry" />
        </mxCell>
        <mxCell id="RWj2YH0PV7CuDDnvpd_u-34" value="-&amp;nbsp;assign_prev_node(Node)" style="text;strokeColor=none;fillColor=none;align=left;verticalAlign=top;spacingLeft=4;spacingRight=4;overflow=hidden;rotatable=0;points=[[0,0.5],[1,0.5]];portConstraint=eastwest;whiteSpace=wrap;html=1;" parent="RWj2YH0PV7CuDDnvpd_u-31" vertex="1">
          <mxGeometry y="86" width="160" height="26" as="geometry" />
        </mxCell>
        <mxCell id="RWj2YH0PV7CuDDnvpd_u-36" value="-&amp;nbsp;assign_next_node(Node)" style="text;strokeColor=none;fillColor=none;align=left;verticalAlign=top;spacingLeft=4;spacingRight=4;overflow=hidden;rotatable=0;points=[[0,0.5],[1,0.5]];portConstraint=eastwest;whiteSpace=wrap;html=1;" parent="RWj2YH0PV7CuDDnvpd_u-31" vertex="1">
          <mxGeometry y="112" width="160" height="26" as="geometry" />
        </mxCell>
        <mxCell id="nHJ2dLCDOHVwuIaZtyQN-0" style="edgeStyle=orthogonalEdgeStyle;rounded=0;orthogonalLoop=1;jettySize=auto;html=1;endArrow=block;endFill=0;" parent="WIyWlLk6GJQsqaUBKTNV-1" source="RWj2YH0PV7CuDDnvpd_u-37" target="RWj2YH0PV7CuDDnvpd_u-31" edge="1">
          <mxGeometry relative="1" as="geometry" />
        </mxCell>
        <mxCell id="RWj2YH0PV7CuDDnvpd_u-37" value="Street" style="swimlane;fontStyle=1;align=center;verticalAlign=top;childLayout=stackLayout;horizontal=1;startSize=26;horizontalStack=0;resizeParent=1;resizeParentMax=0;resizeLast=0;collapsible=1;marginBottom=0;whiteSpace=wrap;html=1;" parent="WIyWlLk6GJQsqaUBKTNV-1" vertex="1">
          <mxGeometry x="1040" y="340" width="160" height="138" as="geometry" />
        </mxCell>
        <mxCell id="RWj2YH0PV7CuDDnvpd_u-38" value="- tracks = Integer" style="text;strokeColor=none;fillColor=none;align=left;verticalAlign=top;spacingLeft=4;spacingRight=4;overflow=hidden;rotatable=0;points=[[0,0.5],[1,0.5]];portConstraint=eastwest;whiteSpace=wrap;html=1;" parent="RWj2YH0PV7CuDDnvpd_u-37" vertex="1">
          <mxGeometry y="26" width="160" height="26" as="geometry" />
        </mxCell>
        <mxCell id="RWj2YH0PV7CuDDnvpd_u-39" value="-&amp;nbsp;length = Float" style="text;strokeColor=none;fillColor=none;align=left;verticalAlign=top;spacingLeft=4;spacingRight=4;overflow=hidden;rotatable=0;points=[[0,0.5],[1,0.5]];portConstraint=eastwest;whiteSpace=wrap;html=1;" parent="RWj2YH0PV7CuDDnvpd_u-37" vertex="1">
          <mxGeometry y="52" width="160" height="26" as="geometry" />
        </mxCell>
        <mxCell id="RWj2YH0PV7CuDDnvpd_u-40" value="" style="line;strokeWidth=1;fillColor=none;align=left;verticalAlign=middle;spacingTop=-1;spacingLeft=3;spacingRight=3;rotatable=0;labelPosition=right;points=[];portConstraint=eastwest;strokeColor=inherit;" parent="RWj2YH0PV7CuDDnvpd_u-37" vertex="1">
          <mxGeometry y="78" width="160" height="8" as="geometry" />
        </mxCell>
        <mxCell id="RWj2YH0PV7CuDDnvpd_u-41" value="-&amp;nbsp;assign_prev_node(Node)" style="text;strokeColor=none;fillColor=none;align=left;verticalAlign=top;spacingLeft=4;spacingRight=4;overflow=hidden;rotatable=0;points=[[0,0.5],[1,0.5]];portConstraint=eastwest;whiteSpace=wrap;html=1;" parent="RWj2YH0PV7CuDDnvpd_u-37" vertex="1">
          <mxGeometry y="86" width="160" height="26" as="geometry" />
        </mxCell>
        <mxCell id="RWj2YH0PV7CuDDnvpd_u-42" value="-&amp;nbsp;assign_next_node(Node)" style="text;strokeColor=none;fillColor=none;align=left;verticalAlign=top;spacingLeft=4;spacingRight=4;overflow=hidden;rotatable=0;points=[[0,0.5],[1,0.5]];portConstraint=eastwest;whiteSpace=wrap;html=1;" parent="RWj2YH0PV7CuDDnvpd_u-37" vertex="1">
          <mxGeometry y="112" width="160" height="26" as="geometry" />
        </mxCell>
        <mxCell id="nHJ2dLCDOHVwuIaZtyQN-4" style="edgeStyle=orthogonalEdgeStyle;rounded=0;orthogonalLoop=1;jettySize=auto;html=1;endArrow=block;endFill=0;" parent="WIyWlLk6GJQsqaUBKTNV-1" source="RWj2YH0PV7CuDDnvpd_u-43" target="RWj2YH0PV7CuDDnvpd_u-31" edge="1">
          <mxGeometry relative="1" as="geometry">
            <Array as="points">
              <mxPoint x="1520" y="300" />
              <mxPoint x="1120" y="300" />
            </Array>
          </mxGeometry>
        </mxCell>
        <mxCell id="RWj2YH0PV7CuDDnvpd_u-43" value="End" style="swimlane;fontStyle=1;align=center;verticalAlign=top;childLayout=stackLayout;horizontal=1;startSize=26;horizontalStack=0;resizeParent=1;resizeParentMax=0;resizeLast=0;collapsible=1;marginBottom=0;whiteSpace=wrap;html=1;" parent="WIyWlLk6GJQsqaUBKTNV-1" vertex="1">
          <mxGeometry x="1440" y="340" width="160" height="138" as="geometry" />
        </mxCell>
        <mxCell id="RWj2YH0PV7CuDDnvpd_u-44" value="-&amp;nbsp;prev_node: Node" style="text;strokeColor=none;fillColor=none;align=left;verticalAlign=top;spacingLeft=4;spacingRight=4;overflow=hidden;rotatable=0;points=[[0,0.5],[1,0.5]];portConstraint=eastwest;whiteSpace=wrap;html=1;" parent="RWj2YH0PV7CuDDnvpd_u-43" vertex="1">
          <mxGeometry y="26" width="160" height="26" as="geometry" />
        </mxCell>
        <mxCell id="RWj2YH0PV7CuDDnvpd_u-45" value="-&amp;nbsp;next_node: Node" style="text;strokeColor=none;fillColor=none;align=left;verticalAlign=top;spacingLeft=4;spacingRight=4;overflow=hidden;rotatable=0;points=[[0,0.5],[1,0.5]];portConstraint=eastwest;whiteSpace=wrap;html=1;" parent="RWj2YH0PV7CuDDnvpd_u-43" vertex="1">
          <mxGeometry y="52" width="160" height="26" as="geometry" />
        </mxCell>
        <mxCell id="RWj2YH0PV7CuDDnvpd_u-46" value="" style="line;strokeWidth=1;fillColor=none;align=left;verticalAlign=middle;spacingTop=-1;spacingLeft=3;spacingRight=3;rotatable=0;labelPosition=right;points=[];portConstraint=eastwest;strokeColor=inherit;" parent="RWj2YH0PV7CuDDnvpd_u-43" vertex="1">
          <mxGeometry y="78" width="160" height="8" as="geometry" />
        </mxCell>
        <mxCell id="RWj2YH0PV7CuDDnvpd_u-47" value="-&amp;nbsp;assign_prev_node(Node)" style="text;strokeColor=none;fillColor=none;align=left;verticalAlign=top;spacingLeft=4;spacingRight=4;overflow=hidden;rotatable=0;points=[[0,0.5],[1,0.5]];portConstraint=eastwest;whiteSpace=wrap;html=1;" parent="RWj2YH0PV7CuDDnvpd_u-43" vertex="1">
          <mxGeometry y="86" width="160" height="26" as="geometry" />
        </mxCell>
        <mxCell id="RWj2YH0PV7CuDDnvpd_u-48" value="-&amp;nbsp;assign_next_node(Node)" style="text;strokeColor=none;fillColor=none;align=left;verticalAlign=top;spacingLeft=4;spacingRight=4;overflow=hidden;rotatable=0;points=[[0,0.5],[1,0.5]];portConstraint=eastwest;whiteSpace=wrap;html=1;" parent="RWj2YH0PV7CuDDnvpd_u-43" vertex="1">
          <mxGeometry y="112" width="160" height="26" as="geometry" />
        </mxCell>
        <mxCell id="nHJ2dLCDOHVwuIaZtyQN-2" style="edgeStyle=orthogonalEdgeStyle;rounded=0;orthogonalLoop=1;jettySize=auto;html=1;endArrow=block;endFill=0;exitX=0.5;exitY=0;exitDx=0;exitDy=0;" parent="WIyWlLk6GJQsqaUBKTNV-1" source="RWj2YH0PV7CuDDnvpd_u-49" target="RWj2YH0PV7CuDDnvpd_u-31" edge="1">
          <mxGeometry relative="1" as="geometry">
            <Array as="points">
              <mxPoint x="490" y="300" />
              <mxPoint x="1120" y="300" />
            </Array>
          </mxGeometry>
        </mxCell>
        <mxCell id="RWj2YH0PV7CuDDnvpd_u-49" value="Start" style="swimlane;fontStyle=1;align=center;verticalAlign=top;childLayout=stackLayout;horizontal=1;startSize=26;horizontalStack=0;resizeParent=1;resizeParentMax=0;resizeLast=0;collapsible=1;marginBottom=0;whiteSpace=wrap;html=1;" parent="WIyWlLk6GJQsqaUBKTNV-1" vertex="1">
          <mxGeometry x="410" y="340" width="160" height="138" as="geometry" />
        </mxCell>
        <mxCell id="RWj2YH0PV7CuDDnvpd_u-50" value="-&amp;nbsp;prev_node: Node" style="text;strokeColor=none;fillColor=none;align=left;verticalAlign=top;spacingLeft=4;spacingRight=4;overflow=hidden;rotatable=0;points=[[0,0.5],[1,0.5]];portConstraint=eastwest;whiteSpace=wrap;html=1;" parent="RWj2YH0PV7CuDDnvpd_u-49" vertex="1">
          <mxGeometry y="26" width="160" height="26" as="geometry" />
        </mxCell>
        <mxCell id="RWj2YH0PV7CuDDnvpd_u-51" value="-&amp;nbsp;next_node: Node" style="text;strokeColor=none;fillColor=none;align=left;verticalAlign=top;spacingLeft=4;spacingRight=4;overflow=hidden;rotatable=0;points=[[0,0.5],[1,0.5]];portConstraint=eastwest;whiteSpace=wrap;html=1;" parent="RWj2YH0PV7CuDDnvpd_u-49" vertex="1">
          <mxGeometry y="52" width="160" height="26" as="geometry" />
        </mxCell>
        <mxCell id="RWj2YH0PV7CuDDnvpd_u-52" value="" style="line;strokeWidth=1;fillColor=none;align=left;verticalAlign=middle;spacingTop=-1;spacingLeft=3;spacingRight=3;rotatable=0;labelPosition=right;points=[];portConstraint=eastwest;strokeColor=inherit;" parent="RWj2YH0PV7CuDDnvpd_u-49" vertex="1">
          <mxGeometry y="78" width="160" height="8" as="geometry" />
        </mxCell>
        <mxCell id="RWj2YH0PV7CuDDnvpd_u-53" value="-&amp;nbsp;assign_prev_node(Node)" style="text;strokeColor=none;fillColor=none;align=left;verticalAlign=top;spacingLeft=4;spacingRight=4;overflow=hidden;rotatable=0;points=[[0,0.5],[1,0.5]];portConstraint=eastwest;whiteSpace=wrap;html=1;" parent="RWj2YH0PV7CuDDnvpd_u-49" vertex="1">
          <mxGeometry y="86" width="160" height="26" as="geometry" />
        </mxCell>
        <mxCell id="RWj2YH0PV7CuDDnvpd_u-54" value="-&amp;nbsp;assign_next_node(Node)" style="text;strokeColor=none;fillColor=none;align=left;verticalAlign=top;spacingLeft=4;spacingRight=4;overflow=hidden;rotatable=0;points=[[0,0.5],[1,0.5]];portConstraint=eastwest;whiteSpace=wrap;html=1;" parent="RWj2YH0PV7CuDDnvpd_u-49" vertex="1">
          <mxGeometry y="112" width="160" height="26" as="geometry" />
        </mxCell>
        <mxCell id="nHJ2dLCDOHVwuIaZtyQN-1" style="edgeStyle=orthogonalEdgeStyle;rounded=0;orthogonalLoop=1;jettySize=auto;html=1;endArrow=block;endFill=0;" parent="WIyWlLk6GJQsqaUBKTNV-1" source="RWj2YH0PV7CuDDnvpd_u-55" target="RWj2YH0PV7CuDDnvpd_u-31" edge="1">
          <mxGeometry relative="1" as="geometry">
            <Array as="points">
              <mxPoint x="815" y="300" />
              <mxPoint x="1120" y="300" />
            </Array>
          </mxGeometry>
        </mxCell>
        <mxCell id="RWj2YH0PV7CuDDnvpd_u-55" value="Stop" style="swimlane;fontStyle=1;align=center;verticalAlign=top;childLayout=stackLayout;horizontal=1;startSize=26;horizontalStack=0;resizeParent=1;resizeParentMax=0;resizeLast=0;collapsible=1;marginBottom=0;whiteSpace=wrap;html=1;" parent="WIyWlLk6GJQsqaUBKTNV-1" vertex="1">
          <mxGeometry x="660" y="340" width="310" height="320" as="geometry" />
        </mxCell>
        <mxCell id="RWj2YH0PV7CuDDnvpd_u-56" value="- id: String" style="text;strokeColor=none;fillColor=none;align=left;verticalAlign=top;spacingLeft=4;spacingRight=4;overflow=hidden;rotatable=0;points=[[0,0.5],[1,0.5]];portConstraint=eastwest;whiteSpace=wrap;html=1;" parent="RWj2YH0PV7CuDDnvpd_u-55" vertex="1">
          <mxGeometry y="26" width="310" height="26" as="geometry" />
        </mxCell>
        <mxCell id="RWj2YH0PV7CuDDnvpd_u-57" value="-&amp;nbsp;serving_routes:List&amp;lt;Routes&amp;gt;" style="text;strokeColor=none;fillColor=none;align=left;verticalAlign=top;spacingLeft=4;spacingRight=4;overflow=hidden;rotatable=0;points=[[0,0.5],[1,0.5]];portConstraint=eastwest;whiteSpace=wrap;html=1;" parent="RWj2YH0PV7CuDDnvpd_u-55" vertex="1">
          <mxGeometry y="52" width="310" height="26" as="geometry" />
        </mxCell>
        <mxCell id="8gVMpmqY-QZqlyCmKifE-3" value="-&amp;nbsp;n_platform: Integer" style="text;strokeColor=none;fillColor=none;align=left;verticalAlign=top;spacingLeft=4;spacingRight=4;overflow=hidden;rotatable=0;points=[[0,0.5],[1,0.5]];portConstraint=eastwest;whiteSpace=wrap;html=1;" parent="RWj2YH0PV7CuDDnvpd_u-55" vertex="1">
          <mxGeometry y="78" width="310" height="26" as="geometry" />
        </mxCell>
        <mxCell id="8gVMpmqY-QZqlyCmKifE-2" value="-&amp;nbsp;passengers: List&amp;lt;Passenger&amp;gt;" style="text;strokeColor=none;fillColor=none;align=left;verticalAlign=top;spacingLeft=4;spacingRight=4;overflow=hidden;rotatable=0;points=[[0,0.5],[1,0.5]];portConstraint=eastwest;whiteSpace=wrap;html=1;" parent="RWj2YH0PV7CuDDnvpd_u-55" vertex="1">
          <mxGeometry y="104" width="310" height="26" as="geometry" />
        </mxCell>
        <mxCell id="8gVMpmqY-QZqlyCmKifE-1" value="- passengers_boarding_queue:Dic{id:List&amp;lt;Passenger&amp;gt;}" style="text;strokeColor=none;fillColor=none;align=left;verticalAlign=top;spacingLeft=4;spacingRight=4;overflow=hidden;rotatable=0;points=[[0,0.5],[1,0.5]];portConstraint=eastwest;whiteSpace=wrap;html=1;" parent="RWj2YH0PV7CuDDnvpd_u-55" vertex="1">
          <mxGeometry y="130" width="310" height="26" as="geometry" />
        </mxCell>
        <mxCell id="8gVMpmqY-QZqlyCmKifE-0" value="- bus_waiting_queue: List&amp;lt;Bus&amp;gt;" style="text;strokeColor=none;fillColor=none;align=left;verticalAlign=top;spacingLeft=4;spacingRight=4;overflow=hidden;rotatable=0;points=[[0,0.5],[1,0.5]];portConstraint=eastwest;whiteSpace=wrap;html=1;" parent="RWj2YH0PV7CuDDnvpd_u-55" vertex="1">
          <mxGeometry y="156" width="310" height="26" as="geometry" />
        </mxCell>
        <mxCell id="RWj2YH0PV7CuDDnvpd_u-58" value="" style="line;strokeWidth=1;fillColor=none;align=left;verticalAlign=middle;spacingTop=-1;spacingLeft=3;spacingRight=3;rotatable=0;labelPosition=right;points=[];portConstraint=eastwest;strokeColor=inherit;" parent="RWj2YH0PV7CuDDnvpd_u-55" vertex="1">
          <mxGeometry y="182" width="310" height="8" as="geometry" />
        </mxCell>
        <mxCell id="RWj2YH0PV7CuDDnvpd_u-59" value="-&amp;nbsp;arriving_passenger(passenger)" style="text;strokeColor=none;fillColor=none;align=left;verticalAlign=top;spacingLeft=4;spacingRight=4;overflow=hidden;rotatable=0;points=[[0,0.5],[1,0.5]];portConstraint=eastwest;whiteSpace=wrap;html=1;" parent="RWj2YH0PV7CuDDnvpd_u-55" vertex="1">
          <mxGeometry y="190" width="310" height="26" as="geometry" />
        </mxCell>
        <mxCell id="8gVMpmqY-QZqlyCmKifE-7" value="-&amp;nbsp;leaving_passenger(passenger)" style="text;strokeColor=none;fillColor=none;align=left;verticalAlign=top;spacingLeft=4;spacingRight=4;overflow=hidden;rotatable=0;points=[[0,0.5],[1,0.5]];portConstraint=eastwest;whiteSpace=wrap;html=1;" parent="RWj2YH0PV7CuDDnvpd_u-55" vertex="1">
          <mxGeometry y="216" width="310" height="26" as="geometry" />
        </mxCell>
        <mxCell id="8gVMpmqY-QZqlyCmKifE-6" value="-&amp;nbsp;build_passenger_boarding_queue()" style="text;strokeColor=none;fillColor=none;align=left;verticalAlign=top;spacingLeft=4;spacingRight=4;overflow=hidden;rotatable=0;points=[[0,0.5],[1,0.5]];portConstraint=eastwest;whiteSpace=wrap;html=1;" parent="RWj2YH0PV7CuDDnvpd_u-55" vertex="1">
          <mxGeometry y="242" width="310" height="26" as="geometry" />
        </mxCell>
        <mxCell id="8gVMpmqY-QZqlyCmKifE-5" value="-&amp;nbsp;add_passenger_boarding_queue(passenger)" style="text;strokeColor=none;fillColor=none;align=left;verticalAlign=top;spacingLeft=4;spacingRight=4;overflow=hidden;rotatable=0;points=[[0,0.5],[1,0.5]];portConstraint=eastwest;whiteSpace=wrap;html=1;" parent="RWj2YH0PV7CuDDnvpd_u-55" vertex="1">
          <mxGeometry y="268" width="310" height="26" as="geometry" />
        </mxCell>
        <mxCell id="8gVMpmqY-QZqlyCmKifE-4" value="-&amp;nbsp;calculate_bus_waiting_queue()" style="text;strokeColor=none;fillColor=none;align=left;verticalAlign=top;spacingLeft=4;spacingRight=4;overflow=hidden;rotatable=0;points=[[0,0.5],[1,0.5]];portConstraint=eastwest;whiteSpace=wrap;html=1;" parent="RWj2YH0PV7CuDDnvpd_u-55" vertex="1">
          <mxGeometry y="294" width="310" height="26" as="geometry" />
        </mxCell>
        <mxCell id="nHJ2dLCDOHVwuIaZtyQN-3" style="edgeStyle=orthogonalEdgeStyle;rounded=0;orthogonalLoop=1;jettySize=auto;html=1;endArrow=block;endFill=0;" parent="WIyWlLk6GJQsqaUBKTNV-1" source="RWj2YH0PV7CuDDnvpd_u-61" target="RWj2YH0PV7CuDDnvpd_u-31" edge="1">
          <mxGeometry relative="1" as="geometry">
            <Array as="points">
              <mxPoint x="1321" y="300" />
              <mxPoint x="1120" y="300" />
            </Array>
          </mxGeometry>
        </mxCell>
        <mxCell id="RWj2YH0PV7CuDDnvpd_u-61" value="Intersection" style="swimlane;fontStyle=1;align=center;verticalAlign=top;childLayout=stackLayout;horizontal=1;startSize=26;horizontalStack=0;resizeParent=1;resizeParentMax=0;resizeLast=0;collapsible=1;marginBottom=0;whiteSpace=wrap;html=1;fillColor=#d5e8d4;strokeColor=#82b366;" parent="WIyWlLk6GJQsqaUBKTNV-1" vertex="1">
          <mxGeometry x="1241" y="340" width="160" height="450" as="geometry" />
        </mxCell>
        <mxCell id="RWj2YH0PV7CuDDnvpd_u-62" value="-&amp;nbsp;semaphore: String" style="text;strokeColor=none;fillColor=none;align=left;verticalAlign=top;spacingLeft=4;spacingRight=4;overflow=hidden;rotatable=0;points=[[0,0.5],[1,0.5]];portConstraint=eastwest;whiteSpace=wrap;html=1;" parent="RWj2YH0PV7CuDDnvpd_u-61" vertex="1">
          <mxGeometry y="26" width="160" height="26" as="geometry" />
        </mxCell>
        <mxCell id="RWj2YH0PV7CuDDnvpd_u-63" value="-&amp;nbsp;cicle_duration: Integer" style="text;strokeColor=none;fillColor=none;align=left;verticalAlign=top;spacingLeft=4;spacingRight=4;overflow=hidden;rotatable=0;points=[[0,0.5],[1,0.5]];portConstraint=eastwest;whiteSpace=wrap;html=1;" parent="RWj2YH0PV7CuDDnvpd_u-61" vertex="1">
          <mxGeometry y="52" width="160" height="26" as="geometry" />
        </mxCell>
        <mxCell id="RWj2YH0PV7CuDDnvpd_u-67" value="-&amp;nbsp;effective_green: Float" style="text;strokeColor=none;fillColor=none;align=left;verticalAlign=top;spacingLeft=4;spacingRight=4;overflow=hidden;rotatable=0;points=[[0,0.5],[1,0.5]];portConstraint=eastwest;whiteSpace=wrap;html=1;" parent="RWj2YH0PV7CuDDnvpd_u-61" vertex="1">
          <mxGeometry y="78" width="160" height="26" as="geometry" />
        </mxCell>
        <mxCell id="RWj2YH0PV7CuDDnvpd_u-72" value="-&amp;nbsp;g_timer: Float" style="text;strokeColor=none;fillColor=none;align=left;verticalAlign=top;spacingLeft=4;spacingRight=4;overflow=hidden;rotatable=0;points=[[0,0.5],[1,0.5]];portConstraint=eastwest;whiteSpace=wrap;html=1;" parent="RWj2YH0PV7CuDDnvpd_u-61" vertex="1">
          <mxGeometry y="104" width="160" height="26" as="geometry" />
        </mxCell>
        <mxCell id="RWj2YH0PV7CuDDnvpd_u-71" value="-&amp;nbsp;y_timer: Float" style="text;strokeColor=none;fillColor=none;align=left;verticalAlign=top;spacingLeft=4;spacingRight=4;overflow=hidden;rotatable=0;points=[[0,0.5],[1,0.5]];portConstraint=eastwest;whiteSpace=wrap;html=1;" parent="RWj2YH0PV7CuDDnvpd_u-61" vertex="1">
          <mxGeometry y="130" width="160" height="26" as="geometry" />
        </mxCell>
        <mxCell id="RWj2YH0PV7CuDDnvpd_u-70" value="-&amp;nbsp;r_timer: Float" style="text;strokeColor=none;fillColor=none;align=left;verticalAlign=top;spacingLeft=4;spacingRight=4;overflow=hidden;rotatable=0;points=[[0,0.5],[1,0.5]];portConstraint=eastwest;whiteSpace=wrap;html=1;" parent="RWj2YH0PV7CuDDnvpd_u-61" vertex="1">
          <mxGeometry y="156" width="160" height="26" as="geometry" />
        </mxCell>
        <mxCell id="RWj2YH0PV7CuDDnvpd_u-69" value="- current_timer_left: Float" style="text;strokeColor=none;fillColor=none;align=left;verticalAlign=top;spacingLeft=4;spacingRight=4;overflow=hidden;rotatable=0;points=[[0,0.5],[1,0.5]];portConstraint=eastwest;whiteSpace=wrap;html=1;" parent="RWj2YH0PV7CuDDnvpd_u-61" vertex="1">
          <mxGeometry y="182" width="160" height="26" as="geometry" />
        </mxCell>
        <mxCell id="RWj2YH0PV7CuDDnvpd_u-68" value="-&amp;nbsp;break_signal: Bool" style="text;strokeColor=none;fillColor=none;align=left;verticalAlign=top;spacingLeft=4;spacingRight=4;overflow=hidden;rotatable=0;points=[[0,0.5],[1,0.5]];portConstraint=eastwest;whiteSpace=wrap;html=1;" parent="RWj2YH0PV7CuDDnvpd_u-61" vertex="1">
          <mxGeometry y="208" width="160" height="26" as="geometry" />
        </mxCell>
        <mxCell id="RWj2YH0PV7CuDDnvpd_u-73" value="-&amp;nbsp;queue: List&amp;lt;Bus&amp;gt;" style="text;strokeColor=none;fillColor=none;align=left;verticalAlign=top;spacingLeft=4;spacingRight=4;overflow=hidden;rotatable=0;points=[[0,0.5],[1,0.5]];portConstraint=eastwest;whiteSpace=wrap;html=1;" parent="RWj2YH0PV7CuDDnvpd_u-61" vertex="1">
          <mxGeometry y="234" width="160" height="26" as="geometry" />
        </mxCell>
        <mxCell id="RWj2YH0PV7CuDDnvpd_u-64" value="" style="line;strokeWidth=1;fillColor=none;align=left;verticalAlign=middle;spacingTop=-1;spacingLeft=3;spacingRight=3;rotatable=0;labelPosition=right;points=[];portConstraint=eastwest;strokeColor=inherit;" parent="RWj2YH0PV7CuDDnvpd_u-61" vertex="1">
          <mxGeometry y="260" width="160" height="8" as="geometry" />
        </mxCell>
        <mxCell id="RWj2YH0PV7CuDDnvpd_u-65" value="-&amp;nbsp;calculate_g_timer()" style="text;strokeColor=none;fillColor=none;align=left;verticalAlign=top;spacingLeft=4;spacingRight=4;overflow=hidden;rotatable=0;points=[[0,0.5],[1,0.5]];portConstraint=eastwest;whiteSpace=wrap;html=1;" parent="RWj2YH0PV7CuDDnvpd_u-61" vertex="1">
          <mxGeometry y="268" width="160" height="26" as="geometry" />
        </mxCell>
        <mxCell id="RWj2YH0PV7CuDDnvpd_u-79" value="-&amp;nbsp;calculate_r_timer()" style="text;strokeColor=none;fillColor=none;align=left;verticalAlign=top;spacingLeft=4;spacingRight=4;overflow=hidden;rotatable=0;points=[[0,0.5],[1,0.5]];portConstraint=eastwest;whiteSpace=wrap;html=1;" parent="RWj2YH0PV7CuDDnvpd_u-61" vertex="1">
          <mxGeometry y="294" width="160" height="26" as="geometry" />
        </mxCell>
        <mxCell id="RWj2YH0PV7CuDDnvpd_u-78" value="-&amp;nbsp;activate_g_light()" style="text;strokeColor=none;fillColor=none;align=left;verticalAlign=top;spacingLeft=4;spacingRight=4;overflow=hidden;rotatable=0;points=[[0,0.5],[1,0.5]];portConstraint=eastwest;whiteSpace=wrap;html=1;" parent="RWj2YH0PV7CuDDnvpd_u-61" vertex="1">
          <mxGeometry y="320" width="160" height="26" as="geometry" />
        </mxCell>
        <mxCell id="RWj2YH0PV7CuDDnvpd_u-77" value="-&amp;nbsp;activate_y_light()" style="text;strokeColor=none;fillColor=none;align=left;verticalAlign=top;spacingLeft=4;spacingRight=4;overflow=hidden;rotatable=0;points=[[0,0.5],[1,0.5]];portConstraint=eastwest;whiteSpace=wrap;html=1;" parent="RWj2YH0PV7CuDDnvpd_u-61" vertex="1">
          <mxGeometry y="346" width="160" height="26" as="geometry" />
        </mxCell>
        <mxCell id="RWj2YH0PV7CuDDnvpd_u-76" value="-&amp;nbsp;activate_r_light()" style="text;strokeColor=none;fillColor=none;align=left;verticalAlign=top;spacingLeft=4;spacingRight=4;overflow=hidden;rotatable=0;points=[[0,0.5],[1,0.5]];portConstraint=eastwest;whiteSpace=wrap;html=1;" parent="RWj2YH0PV7CuDDnvpd_u-61" vertex="1">
          <mxGeometry y="372" width="160" height="26" as="geometry" />
        </mxCell>
        <mxCell id="RWj2YH0PV7CuDDnvpd_u-75" value="-&amp;nbsp;update_timer(tick)" style="text;strokeColor=none;fillColor=none;align=left;verticalAlign=top;spacingLeft=4;spacingRight=4;overflow=hidden;rotatable=0;points=[[0,0.5],[1,0.5]];portConstraint=eastwest;whiteSpace=wrap;html=1;" parent="RWj2YH0PV7CuDDnvpd_u-61" vertex="1">
          <mxGeometry y="398" width="160" height="26" as="geometry" />
        </mxCell>
        <mxCell id="RWj2YH0PV7CuDDnvpd_u-74" value="-&amp;nbsp;calculate_queue_length()" style="text;strokeColor=none;fillColor=none;align=left;verticalAlign=top;spacingLeft=4;spacingRight=4;overflow=hidden;rotatable=0;points=[[0,0.5],[1,0.5]];portConstraint=eastwest;whiteSpace=wrap;html=1;" parent="RWj2YH0PV7CuDDnvpd_u-61" vertex="1">
          <mxGeometry y="424" width="160" height="26" as="geometry" />
        </mxCell>
      </root>
    </mxGraphModel>
  </diagram>
  <diagram id="HF5MtN0NXpYXlKI4HXrK" name="Flowchart (Bus)">
    <mxGraphModel dx="1639" dy="901" grid="1" gridSize="10" guides="1" tooltips="1" connect="1" arrows="1" fold="1" page="1" pageScale="1" pageWidth="850" pageHeight="1100" math="0" shadow="0">
      <root>
        <mxCell id="0" />
        <mxCell id="1" parent="0" />
        <mxCell id="Q-F83nOChM4FhaYesDk5-1" style="edgeStyle=orthogonalEdgeStyle;rounded=0;orthogonalLoop=1;jettySize=auto;html=1;entryX=0.5;entryY=0;entryDx=0;entryDy=0;" parent="1" source="js3J5FijsrZTFiiBKvxI-1" target="js3J5FijsrZTFiiBKvxI-2" edge="1">
          <mxGeometry relative="1" as="geometry" />
        </mxCell>
        <mxCell id="js3J5FijsrZTFiiBKvxI-1" value="Start" style="ellipse;whiteSpace=wrap;html=1;aspect=fixed;fillColor=#d5e8d4;strokeColor=#82b366;" parent="1" vertex="1">
          <mxGeometry x="95" y="18" width="80" height="80" as="geometry" />
        </mxCell>
        <mxCell id="Q-F83nOChM4FhaYesDk5-2" style="edgeStyle=orthogonalEdgeStyle;rounded=0;orthogonalLoop=1;jettySize=auto;html=1;entryX=0.5;entryY=0;entryDx=0;entryDy=0;" parent="1" source="js3J5FijsrZTFiiBKvxI-2" target="js3J5FijsrZTFiiBKvxI-3" edge="1">
          <mxGeometry relative="1" as="geometry" />
        </mxCell>
        <mxCell id="js3J5FijsrZTFiiBKvxI-2" value="Bus Enter Simulation in t_in" style="rounded=0;whiteSpace=wrap;html=1;" parent="1" vertex="1">
          <mxGeometry x="75" y="120" width="120" height="60" as="geometry" />
        </mxCell>
        <mxCell id="Q-F83nOChM4FhaYesDk5-3" style="edgeStyle=orthogonalEdgeStyle;rounded=0;orthogonalLoop=1;jettySize=auto;html=1;entryX=0.5;entryY=0;entryDx=0;entryDy=0;" parent="1" source="js3J5FijsrZTFiiBKvxI-3" target="js3J5FijsrZTFiiBKvxI-4" edge="1">
          <mxGeometry relative="1" as="geometry" />
        </mxCell>
        <mxCell id="js3J5FijsrZTFiiBKvxI-3" value="Approaches Stop" style="rounded=0;whiteSpace=wrap;html=1;" parent="1" vertex="1">
          <mxGeometry x="75" y="206" width="120" height="60" as="geometry" />
        </mxCell>
        <mxCell id="Q-F83nOChM4FhaYesDk5-4" value="NO" style="edgeStyle=orthogonalEdgeStyle;rounded=0;orthogonalLoop=1;jettySize=auto;html=1;entryX=0.5;entryY=0;entryDx=0;entryDy=0;fillColor=#f8cecc;strokeColor=#b85450;" parent="1" source="js3J5FijsrZTFiiBKvxI-4" target="js3J5FijsrZTFiiBKvxI-6" edge="1">
          <mxGeometry relative="1" as="geometry" />
        </mxCell>
        <mxCell id="Q-F83nOChM4FhaYesDk5-8" value="YES" style="edgeStyle=orthogonalEdgeStyle;rounded=0;orthogonalLoop=1;jettySize=auto;html=1;exitX=1;exitY=0.5;exitDx=0;exitDy=0;entryX=0.5;entryY=0;entryDx=0;entryDy=0;fillColor=#d5e8d4;strokeColor=#82b366;" parent="1" source="js3J5FijsrZTFiiBKvxI-4" target="js3J5FijsrZTFiiBKvxI-7" edge="1">
          <mxGeometry relative="1" as="geometry" />
        </mxCell>
        <mxCell id="js3J5FijsrZTFiiBKvxI-4" value="Empty Bay in stop" style="rhombus;whiteSpace=wrap;html=1;" parent="1" vertex="1">
          <mxGeometry x="88" y="298" width="95" height="80" as="geometry" />
        </mxCell>
        <mxCell id="Q-F83nOChM4FhaYesDk5-7" style="edgeStyle=orthogonalEdgeStyle;rounded=0;orthogonalLoop=1;jettySize=auto;html=1;exitX=0;exitY=0.5;exitDx=0;exitDy=0;entryX=0;entryY=0.5;entryDx=0;entryDy=0;" parent="1" source="js3J5FijsrZTFiiBKvxI-6" target="js3J5FijsrZTFiiBKvxI-4" edge="1">
          <mxGeometry relative="1" as="geometry" />
        </mxCell>
        <mxCell id="js3J5FijsrZTFiiBKvxI-6" value="Wait In Stop Queue" style="rounded=0;whiteSpace=wrap;html=1;" parent="1" vertex="1">
          <mxGeometry x="75" y="408" width="120" height="60" as="geometry" />
        </mxCell>
        <mxCell id="Q-F83nOChM4FhaYesDk5-9" style="edgeStyle=orthogonalEdgeStyle;rounded=0;orthogonalLoop=1;jettySize=auto;html=1;exitX=0.5;exitY=1;exitDx=0;exitDy=0;entryX=0.5;entryY=0;entryDx=0;entryDy=0;" parent="1" source="js3J5FijsrZTFiiBKvxI-7" target="js3J5FijsrZTFiiBKvxI-8" edge="1">
          <mxGeometry relative="1" as="geometry" />
        </mxCell>
        <mxCell id="js3J5FijsrZTFiiBKvxI-7" value="Stop In Bay" style="rounded=0;whiteSpace=wrap;html=1;" parent="1" vertex="1">
          <mxGeometry x="250" y="408" width="120" height="60" as="geometry" />
        </mxCell>
        <mxCell id="Q-F83nOChM4FhaYesDk5-10" style="edgeStyle=orthogonalEdgeStyle;rounded=0;orthogonalLoop=1;jettySize=auto;html=1;exitX=0.5;exitY=1;exitDx=0;exitDy=0;entryX=0.5;entryY=0;entryDx=0;entryDy=0;" parent="1" source="js3J5FijsrZTFiiBKvxI-8" target="js3J5FijsrZTFiiBKvxI-10" edge="1">
          <mxGeometry relative="1" as="geometry" />
        </mxCell>
        <mxCell id="js3J5FijsrZTFiiBKvxI-8" value="Load/Unload Passengers" style="rounded=0;whiteSpace=wrap;html=1;" parent="1" vertex="1">
          <mxGeometry x="250" y="502" width="120" height="60" as="geometry" />
        </mxCell>
        <mxCell id="Q-F83nOChM4FhaYesDk5-11" value="NO" style="edgeStyle=orthogonalEdgeStyle;rounded=0;orthogonalLoop=1;jettySize=auto;html=1;exitX=1;exitY=0.5;exitDx=0;exitDy=0;entryX=1;entryY=0.5;entryDx=0;entryDy=0;fillColor=#f8cecc;strokeColor=#b85450;" parent="1" source="js3J5FijsrZTFiiBKvxI-10" target="js3J5FijsrZTFiiBKvxI-8" edge="1">
          <mxGeometry relative="1" as="geometry">
            <Array as="points">
              <mxPoint x="395" y="632" />
              <mxPoint x="395" y="532" />
            </Array>
          </mxGeometry>
        </mxCell>
        <mxCell id="UvIA07taDk1aov-DJjDH-2" value="YES" style="edgeStyle=orthogonalEdgeStyle;rounded=0;orthogonalLoop=1;jettySize=auto;html=1;exitX=0.5;exitY=1;exitDx=0;exitDy=0;entryX=0.5;entryY=0;entryDx=0;entryDy=0;fillColor=#d5e8d4;strokeColor=#82b366;" parent="1" source="js3J5FijsrZTFiiBKvxI-10" target="UvIA07taDk1aov-DJjDH-1" edge="1">
          <mxGeometry relative="1" as="geometry" />
        </mxCell>
        <mxCell id="js3J5FijsrZTFiiBKvxI-10" value="Transfer complete" style="rhombus;whiteSpace=wrap;html=1;" parent="1" vertex="1">
          <mxGeometry x="270" y="592" width="80" height="80" as="geometry" />
        </mxCell>
        <mxCell id="Q-F83nOChM4FhaYesDk5-32" style="edgeStyle=orthogonalEdgeStyle;rounded=0;orthogonalLoop=1;jettySize=auto;html=1;exitX=0.5;exitY=1;exitDx=0;exitDy=0;entryX=0.5;entryY=0;entryDx=0;entryDy=0;" parent="1" source="js3J5FijsrZTFiiBKvxI-11" target="Q-F83nOChM4FhaYesDk5-28" edge="1">
          <mxGeometry relative="1" as="geometry" />
        </mxCell>
        <mxCell id="js3J5FijsrZTFiiBKvxI-11" value="Leave Stop" style="rounded=0;whiteSpace=wrap;html=1;" parent="1" vertex="1">
          <mxGeometry x="250" y="1039" width="120" height="60" as="geometry" />
        </mxCell>
        <mxCell id="Q-F83nOChM4FhaYesDk5-26" style="edgeStyle=orthogonalEdgeStyle;rounded=0;orthogonalLoop=1;jettySize=auto;html=1;" parent="1" source="js3J5FijsrZTFiiBKvxI-12" target="js3J5FijsrZTFiiBKvxI-13" edge="1">
          <mxGeometry relative="1" as="geometry" />
        </mxCell>
        <mxCell id="js3J5FijsrZTFiiBKvxI-12" value="Drive to Intersection" style="rounded=0;whiteSpace=wrap;html=1;" parent="1" vertex="1">
          <mxGeometry x="405" y="1322" width="120" height="60" as="geometry" />
        </mxCell>
        <mxCell id="Q-F83nOChM4FhaYesDk5-35" value="YES" style="edgeStyle=orthogonalEdgeStyle;rounded=0;orthogonalLoop=1;jettySize=auto;html=1;exitX=0.5;exitY=0;exitDx=0;exitDy=0;entryX=1;entryY=0.5;entryDx=0;entryDy=0;fillColor=#d5e8d4;strokeColor=#82b366;" parent="1" source="js3J5FijsrZTFiiBKvxI-13" target="Q-F83nOChM4FhaYesDk5-13" edge="1">
          <mxGeometry relative="1" as="geometry" />
        </mxCell>
        <mxCell id="Q-F83nOChM4FhaYesDk5-38" value="NO" style="edgeStyle=orthogonalEdgeStyle;rounded=0;orthogonalLoop=1;jettySize=auto;html=1;exitX=1;exitY=0.5;exitDx=0;exitDy=0;entryX=0;entryY=0.5;entryDx=0;entryDy=0;fillColor=#f8cecc;strokeColor=#b85450;" parent="1" source="js3J5FijsrZTFiiBKvxI-13" target="Q-F83nOChM4FhaYesDk5-36" edge="1">
          <mxGeometry relative="1" as="geometry" />
        </mxCell>
        <mxCell id="js3J5FijsrZTFiiBKvxI-13" value="Semaphore Green" style="rhombus;whiteSpace=wrap;html=1;" parent="1" vertex="1">
          <mxGeometry x="575" y="1312" width="80" height="80" as="geometry" />
        </mxCell>
        <mxCell id="Q-F83nOChM4FhaYesDk5-23" style="edgeStyle=orthogonalEdgeStyle;rounded=0;orthogonalLoop=1;jettySize=auto;html=1;exitX=0.5;exitY=1;exitDx=0;exitDy=0;entryX=0.5;entryY=0;entryDx=0;entryDy=0;" parent="1" source="Q-F83nOChM4FhaYesDk5-13" target="Q-F83nOChM4FhaYesDk5-16" edge="1">
          <mxGeometry relative="1" as="geometry" />
        </mxCell>
        <mxCell id="Q-F83nOChM4FhaYesDk5-13" value="Resume Driving" style="rounded=0;whiteSpace=wrap;html=1;" parent="1" vertex="1">
          <mxGeometry x="250" y="1232" width="120" height="60" as="geometry" />
        </mxCell>
        <mxCell id="Q-F83nOChM4FhaYesDk5-24" value="NO" style="edgeStyle=orthogonalEdgeStyle;rounded=0;orthogonalLoop=1;jettySize=auto;html=1;entryX=1;entryY=0.5;entryDx=0;entryDy=0;fillColor=#f8cecc;strokeColor=#b85450;" parent="1" source="Q-F83nOChM4FhaYesDk5-16" target="Q-F83nOChM4FhaYesDk5-17" edge="1">
          <mxGeometry relative="1" as="geometry" />
        </mxCell>
        <mxCell id="Q-F83nOChM4FhaYesDk5-25" value="YES" style="edgeStyle=orthogonalEdgeStyle;rounded=0;orthogonalLoop=1;jettySize=auto;html=1;entryX=0;entryY=0.5;entryDx=0;entryDy=0;fillColor=#d5e8d4;strokeColor=#82b366;" parent="1" source="Q-F83nOChM4FhaYesDk5-16" target="js3J5FijsrZTFiiBKvxI-12" edge="1">
          <mxGeometry relative="1" as="geometry" />
        </mxCell>
        <mxCell id="Q-F83nOChM4FhaYesDk5-16" value="Intersection Ahead" style="rhombus;whiteSpace=wrap;html=1;" parent="1" vertex="1">
          <mxGeometry x="270" y="1312" width="80" height="80" as="geometry" />
        </mxCell>
        <mxCell id="Q-F83nOChM4FhaYesDk5-21" value="NO" style="edgeStyle=orthogonalEdgeStyle;rounded=0;orthogonalLoop=1;jettySize=auto;html=1;entryX=0;entryY=0.5;entryDx=0;entryDy=0;fillColor=#f8cecc;strokeColor=#b85450;" parent="1" source="Q-F83nOChM4FhaYesDk5-17" target="Q-F83nOChM4FhaYesDk5-13" edge="1">
          <mxGeometry relative="1" as="geometry">
            <Array as="points">
              <mxPoint x="135" y="1262" />
            </Array>
          </mxGeometry>
        </mxCell>
        <mxCell id="Q-F83nOChM4FhaYesDk5-27" value="YES" style="edgeStyle=orthogonalEdgeStyle;rounded=0;orthogonalLoop=1;jettySize=auto;html=1;exitX=0;exitY=0.5;exitDx=0;exitDy=0;entryX=0;entryY=0.5;entryDx=0;entryDy=0;fillColor=#d5e8d4;strokeColor=#82b366;" parent="1" source="Q-F83nOChM4FhaYesDk5-17" target="js3J5FijsrZTFiiBKvxI-3" edge="1">
          <mxGeometry relative="1" as="geometry">
            <Array as="points">
              <mxPoint x="25" y="1352" />
              <mxPoint x="25" y="236" />
            </Array>
          </mxGeometry>
        </mxCell>
        <mxCell id="Q-F83nOChM4FhaYesDk5-17" value="Stop Ahead" style="rhombus;whiteSpace=wrap;html=1;" parent="1" vertex="1">
          <mxGeometry x="95" y="1312" width="80" height="80" as="geometry" />
        </mxCell>
        <mxCell id="Q-F83nOChM4FhaYesDk5-29" value="NO" style="edgeStyle=orthogonalEdgeStyle;rounded=0;orthogonalLoop=1;jettySize=auto;html=1;exitX=0.5;exitY=1;exitDx=0;exitDy=0;entryX=0.5;entryY=0;entryDx=0;entryDy=0;fillColor=#f8cecc;strokeColor=#b85450;" parent="1" source="Q-F83nOChM4FhaYesDk5-28" target="Q-F83nOChM4FhaYesDk5-13" edge="1">
          <mxGeometry relative="1" as="geometry" />
        </mxCell>
        <mxCell id="Q-F83nOChM4FhaYesDk5-31" value="YES" style="edgeStyle=orthogonalEdgeStyle;rounded=0;orthogonalLoop=1;jettySize=auto;html=1;exitX=1;exitY=0.5;exitDx=0;exitDy=0;fillColor=#d5e8d4;strokeColor=#82b366;" parent="1" source="Q-F83nOChM4FhaYesDk5-28" target="Q-F83nOChM4FhaYesDk5-30" edge="1">
          <mxGeometry relative="1" as="geometry" />
        </mxCell>
        <mxCell id="Q-F83nOChM4FhaYesDk5-28" value="Last Simulated Stop" style="rhombus;whiteSpace=wrap;html=1;" parent="1" vertex="1">
          <mxGeometry x="270" y="1129" width="80" height="80" as="geometry" />
        </mxCell>
        <mxCell id="Q-F83nOChM4FhaYesDk5-34" style="edgeStyle=orthogonalEdgeStyle;rounded=0;orthogonalLoop=1;jettySize=auto;html=1;exitX=1;exitY=0.5;exitDx=0;exitDy=0;entryX=0;entryY=0.5;entryDx=0;entryDy=0;" parent="1" source="Q-F83nOChM4FhaYesDk5-30" target="Q-F83nOChM4FhaYesDk5-33" edge="1">
          <mxGeometry relative="1" as="geometry" />
        </mxCell>
        <mxCell id="Q-F83nOChM4FhaYesDk5-30" value="Exit Simulation" style="rounded=0;whiteSpace=wrap;html=1;" parent="1" vertex="1">
          <mxGeometry x="405" y="1139" width="120" height="60" as="geometry" />
        </mxCell>
        <mxCell id="Q-F83nOChM4FhaYesDk5-33" value="END" style="ellipse;whiteSpace=wrap;html=1;aspect=fixed;fillColor=#f8cecc;strokeColor=#b85450;" parent="1" vertex="1">
          <mxGeometry x="575" y="1129" width="80" height="80" as="geometry" />
        </mxCell>
        <mxCell id="Q-F83nOChM4FhaYesDk5-41" style="edgeStyle=orthogonalEdgeStyle;rounded=0;orthogonalLoop=1;jettySize=auto;html=1;entryX=0.5;entryY=1;entryDx=0;entryDy=0;" parent="1" source="Q-F83nOChM4FhaYesDk5-36" target="js3J5FijsrZTFiiBKvxI-13" edge="1">
          <mxGeometry relative="1" as="geometry">
            <Array as="points">
              <mxPoint x="755" y="1412" />
              <mxPoint x="615" y="1412" />
            </Array>
          </mxGeometry>
        </mxCell>
        <mxCell id="Q-F83nOChM4FhaYesDk5-36" value="Wait In Intersection Queue" style="rounded=0;whiteSpace=wrap;html=1;" parent="1" vertex="1">
          <mxGeometry x="695" y="1322" width="120" height="60" as="geometry" />
        </mxCell>
        <mxCell id="UvIA07taDk1aov-DJjDH-5" value="NO" style="edgeStyle=orthogonalEdgeStyle;rounded=0;orthogonalLoop=1;jettySize=auto;html=1;entryX=0.5;entryY=0;entryDx=0;entryDy=0;fillColor=#f8cecc;strokeColor=#b85450;" parent="1" source="UvIA07taDk1aov-DJjDH-1" target="UvIA07taDk1aov-DJjDH-4" edge="1">
          <mxGeometry relative="1" as="geometry" />
        </mxCell>
        <mxCell id="HRdld4aTc9q5Y_Gjyrji-9" value="Yes" style="edgeStyle=orthogonalEdgeStyle;rounded=0;orthogonalLoop=1;jettySize=auto;html=1;entryX=1;entryY=0.5;entryDx=0;entryDy=0;fillColor=#d5e8d4;strokeColor=#82b366;" parent="1" source="UvIA07taDk1aov-DJjDH-1" target="js3J5FijsrZTFiiBKvxI-11" edge="1">
          <mxGeometry relative="1" as="geometry">
            <Array as="points">
              <mxPoint x="480" y="750" />
              <mxPoint x="480" y="1069" />
            </Array>
          </mxGeometry>
        </mxCell>
        <mxCell id="UvIA07taDk1aov-DJjDH-1" value="Empty Exit Ahead" style="rhombus;whiteSpace=wrap;html=1;" parent="1" vertex="1">
          <mxGeometry x="270" y="710" width="80" height="80" as="geometry" />
        </mxCell>
        <mxCell id="HRdld4aTc9q5Y_Gjyrji-7" value="YES" style="edgeStyle=orthogonalEdgeStyle;rounded=0;orthogonalLoop=1;jettySize=auto;html=1;entryX=0.5;entryY=0;entryDx=0;entryDy=0;fillColor=#d5e8d4;strokeColor=#82b366;" parent="1" source="UvIA07taDk1aov-DJjDH-4" target="HRdld4aTc9q5Y_Gjyrji-1" edge="1">
          <mxGeometry relative="1" as="geometry" />
        </mxCell>
        <mxCell id="HRdld4aTc9q5Y_Gjyrji-10" value="NO" style="edgeStyle=orthogonalEdgeStyle;rounded=0;orthogonalLoop=1;jettySize=auto;html=1;entryX=0;entryY=0.5;entryDx=0;entryDy=0;fillColor=#f8cecc;strokeColor=#b85450;" parent="1" source="UvIA07taDk1aov-DJjDH-4" target="UvIA07taDk1aov-DJjDH-1" edge="1">
          <mxGeometry relative="1" as="geometry">
            <Array as="points">
              <mxPoint x="230" y="870" />
              <mxPoint x="230" y="750" />
            </Array>
          </mxGeometry>
        </mxCell>
        <mxCell id="UvIA07taDk1aov-DJjDH-4" value="Multi-Track Street&amp;nbsp;" style="rhombus;whiteSpace=wrap;html=1;" parent="1" vertex="1">
          <mxGeometry x="270" y="830" width="80" height="80" as="geometry" />
        </mxCell>
        <mxCell id="HRdld4aTc9q5Y_Gjyrji-8" style="edgeStyle=orthogonalEdgeStyle;rounded=0;orthogonalLoop=1;jettySize=auto;html=1;entryX=0.5;entryY=0;entryDx=0;entryDy=0;" parent="1" source="HRdld4aTc9q5Y_Gjyrji-1" target="js3J5FijsrZTFiiBKvxI-11" edge="1">
          <mxGeometry relative="1" as="geometry" />
        </mxCell>
        <mxCell id="HRdld4aTc9q5Y_Gjyrji-1" value="&quot;Overtake&quot;" style="rounded=0;whiteSpace=wrap;html=1;" parent="1" vertex="1">
          <mxGeometry x="250" y="940" width="120" height="60" as="geometry" />
        </mxCell>
      </root>
    </mxGraphModel>
  </diagram>
  <diagram id="EZyw_GeM41H7Dqwpguk0" name="Nodes">
    <mxGraphModel dx="1393" dy="766" grid="1" gridSize="10" guides="1" tooltips="1" connect="1" arrows="1" fold="1" page="1" pageScale="1" pageWidth="850" pageHeight="1100" math="0" shadow="0">
      <root>
        <mxCell id="0" />
        <mxCell id="1" parent="0" />
        <mxCell id="fhWiLxBi0U_N-hDFiv27-1" value="Start" style="ellipse;whiteSpace=wrap;html=1;aspect=fixed;fillColor=#d5e8d4;strokeColor=#82b366;" parent="1" vertex="1">
          <mxGeometry x="60" y="99" width="40" height="40" as="geometry" />
        </mxCell>
        <mxCell id="fhWiLxBi0U_N-hDFiv27-2" value="End" style="ellipse;whiteSpace=wrap;html=1;aspect=fixed;fillColor=#f8cecc;strokeColor=#b85450;" parent="1" vertex="1">
          <mxGeometry x="130" y="99" width="40" height="40" as="geometry" />
        </mxCell>
        <mxCell id="Lr7Pyga0uyhA2rq1F_3K-37" value="" style="group" parent="1" vertex="1" connectable="0">
          <mxGeometry x="200" y="39" width="340" height="90" as="geometry" />
        </mxCell>
        <mxCell id="Lr7Pyga0uyhA2rq1F_3K-33" value="" style="group" parent="Lr7Pyga0uyhA2rq1F_3K-37" vertex="1" connectable="0">
          <mxGeometry y="10" width="340" height="80" as="geometry" />
        </mxCell>
        <mxCell id="x4Rk1ANgWG0FkRYTRlj3-1" value="" style="endArrow=none;html=1;rounded=0;" parent="Lr7Pyga0uyhA2rq1F_3K-33" edge="1">
          <mxGeometry width="50" height="50" relative="1" as="geometry">
            <mxPoint as="sourcePoint" />
            <mxPoint x="340" as="targetPoint" />
          </mxGeometry>
        </mxCell>
        <mxCell id="x4Rk1ANgWG0FkRYTRlj3-2" value="" style="endArrow=none;html=1;rounded=0;" parent="Lr7Pyga0uyhA2rq1F_3K-33" edge="1">
          <mxGeometry width="50" height="50" relative="1" as="geometry">
            <mxPoint y="80" as="sourcePoint" />
            <mxPoint x="340" y="80" as="targetPoint" />
          </mxGeometry>
        </mxCell>
        <mxCell id="Lr7Pyga0uyhA2rq1F_3K-32" value="" style="rounded=0;whiteSpace=wrap;html=1;strokeColor=none;fillColor=#CCCCCC;container=0;" parent="Lr7Pyga0uyhA2rq1F_3K-33" vertex="1">
          <mxGeometry width="340" height="80" as="geometry" />
        </mxCell>
        <mxCell id="x4Rk1ANgWG0FkRYTRlj3-3" value="" style="endArrow=none;dashed=1;html=1;rounded=0;jumpSize=13;jumpStyle=none;dashPattern=8 8;" parent="Lr7Pyga0uyhA2rq1F_3K-33" edge="1">
          <mxGeometry width="50" height="50" relative="1" as="geometry">
            <mxPoint y="40" as="sourcePoint" />
            <mxPoint x="340" y="40" as="targetPoint" />
          </mxGeometry>
        </mxCell>
        <mxCell id="Lr7Pyga0uyhA2rq1F_3K-34" value="d&lt;sub&gt;&lt;i&gt;i&lt;/i&gt;&lt;/sub&gt;" style="endArrow=none;html=1;rounded=0;" parent="Lr7Pyga0uyhA2rq1F_3K-37" edge="1">
          <mxGeometry width="50" height="50" relative="1" as="geometry">
            <mxPoint y="5" as="sourcePoint" />
            <mxPoint x="340" y="5" as="targetPoint" />
          </mxGeometry>
        </mxCell>
        <mxCell id="Lr7Pyga0uyhA2rq1F_3K-35" value="" style="endArrow=none;html=1;rounded=0;" parent="Lr7Pyga0uyhA2rq1F_3K-37" edge="1">
          <mxGeometry width="50" height="50" relative="1" as="geometry">
            <mxPoint x="339.89" y="10" as="sourcePoint" />
            <mxPoint x="339.89" as="targetPoint" />
            <Array as="points">
              <mxPoint x="340" y="10" />
            </Array>
          </mxGeometry>
        </mxCell>
        <mxCell id="Lr7Pyga0uyhA2rq1F_3K-36" value="" style="endArrow=none;html=1;rounded=0;" parent="Lr7Pyga0uyhA2rq1F_3K-37" edge="1">
          <mxGeometry width="50" height="50" relative="1" as="geometry">
            <mxPoint y="10" as="sourcePoint" />
            <mxPoint as="targetPoint" />
          </mxGeometry>
        </mxCell>
        <mxCell id="Lr7Pyga0uyhA2rq1F_3K-27" value="" style="group" parent="1" vertex="1" connectable="0">
          <mxGeometry x="560" y="8" width="150" height="160" as="geometry" />
        </mxCell>
        <mxCell id="Lr7Pyga0uyhA2rq1F_3K-11" value="" style="endArrow=none;html=1;strokeWidth=2;rounded=0;fillColor=#f5f5f5;strokeColor=#666666;exitX=1;exitY=0;exitDx=0;exitDy=0;" parent="Lr7Pyga0uyhA2rq1F_3K-27" edge="1">
          <mxGeometry width="50" height="50" relative="1" as="geometry">
            <mxPoint x="139" y="120" as="sourcePoint" />
            <mxPoint x="139" y="39" as="targetPoint" />
          </mxGeometry>
        </mxCell>
        <mxCell id="Lr7Pyga0uyhA2rq1F_3K-2" value="" style="rounded=0;whiteSpace=wrap;html=1;fillColor=#fff2cc;strokeColor=#d6b656;strokeWidth=2;container=0;" parent="Lr7Pyga0uyhA2rq1F_3K-27" vertex="1">
          <mxGeometry x="30" y="120" width="120" height="40" as="geometry" />
        </mxCell>
        <mxCell id="Lr7Pyga0uyhA2rq1F_3K-4" value="" style="rounded=0;whiteSpace=wrap;html=1;fillColor=default;strokeColor=#82b366;strokeWidth=2;container=0;" parent="Lr7Pyga0uyhA2rq1F_3K-27" vertex="1">
          <mxGeometry x="129" y="122.5" width="10" height="35" as="geometry" />
        </mxCell>
        <mxCell id="Lr7Pyga0uyhA2rq1F_3K-7" value="" style="rounded=0;whiteSpace=wrap;html=1;fillColor=#dae8fc;strokeColor=#6c8ebf;container=0;" parent="Lr7Pyga0uyhA2rq1F_3K-27" vertex="1">
          <mxGeometry x="95" y="84" width="50" height="30" as="geometry" />
        </mxCell>
        <mxCell id="Lr7Pyga0uyhA2rq1F_3K-8" value="" style="rounded=0;whiteSpace=wrap;html=1;fillColor=default;strokeColor=#82b366;strokeWidth=2;container=0;" parent="Lr7Pyga0uyhA2rq1F_3K-27" vertex="1">
          <mxGeometry x="69" y="122.5" width="10" height="35" as="geometry" />
        </mxCell>
        <mxCell id="Lr7Pyga0uyhA2rq1F_3K-9" value="" style="rounded=0;whiteSpace=wrap;html=1;fillColor=#dae8fc;strokeColor=#6c8ebf;container=0;" parent="Lr7Pyga0uyhA2rq1F_3K-27" vertex="1">
          <mxGeometry x="35" y="84" width="50" height="30" as="geometry" />
        </mxCell>
        <mxCell id="Lr7Pyga0uyhA2rq1F_3K-12" value="" style="ellipse;whiteSpace=wrap;html=1;aspect=fixed;fillColor=#ffe6cc;strokeColor=#d79b00;container=0;" parent="Lr7Pyga0uyhA2rq1F_3K-27" vertex="1">
          <mxGeometry x="129" y="94" width="10" height="10" as="geometry" />
        </mxCell>
        <mxCell id="Lr7Pyga0uyhA2rq1F_3K-13" value="" style="ellipse;whiteSpace=wrap;html=1;aspect=fixed;fillColor=#ffe6cc;strokeColor=#d79b00;container=0;" parent="Lr7Pyga0uyhA2rq1F_3K-27" vertex="1">
          <mxGeometry x="69" y="94" width="10" height="10" as="geometry" />
        </mxCell>
        <mxCell id="Lr7Pyga0uyhA2rq1F_3K-18" value="d&lt;sub&gt;b&lt;/sub&gt;" style="endArrow=none;html=1;rounded=0;" parent="Lr7Pyga0uyhA2rq1F_3K-27" edge="1">
          <mxGeometry width="50" height="50" relative="1" as="geometry">
            <mxPoint y="18" as="sourcePoint" />
            <mxPoint x="139" y="18" as="targetPoint" />
          </mxGeometry>
        </mxCell>
        <mxCell id="Lr7Pyga0uyhA2rq1F_3K-19" value="" style="endArrow=none;html=1;rounded=0;" parent="Lr7Pyga0uyhA2rq1F_3K-27" edge="1">
          <mxGeometry width="50" height="50" relative="1" as="geometry">
            <mxPoint x="138.89" y="23" as="sourcePoint" />
            <mxPoint x="138.89" y="13" as="targetPoint" />
          </mxGeometry>
        </mxCell>
        <mxCell id="Lr7Pyga0uyhA2rq1F_3K-20" value="" style="endArrow=none;html=1;rounded=0;" parent="Lr7Pyga0uyhA2rq1F_3K-27" edge="1">
          <mxGeometry width="50" height="50" relative="1" as="geometry">
            <mxPoint y="23" as="sourcePoint" />
            <mxPoint y="13" as="targetPoint" />
          </mxGeometry>
        </mxCell>
        <mxCell id="Lr7Pyga0uyhA2rq1F_3K-21" value="" style="html=1;verticalLabelPosition=bottom;align=center;labelBackgroundColor=#ffffff;verticalAlign=top;strokeWidth=2;strokeColor=#b85450;shadow=0;dashed=0;shape=mxgraph.ios7.icons.flag;fillColor=#f8cecc;container=0;" parent="Lr7Pyga0uyhA2rq1F_3K-27" vertex="1">
          <mxGeometry width="10" height="10" as="geometry" />
        </mxCell>
        <mxCell id="Lr7Pyga0uyhA2rq1F_3K-22" value="" style="endArrow=none;dashed=1;html=1;dashPattern=1 3;strokeWidth=1;rounded=0;fillColor=#f8cecc;strokeColor=#B80606;" parent="Lr7Pyga0uyhA2rq1F_3K-27" edge="1">
          <mxGeometry width="50" height="50" relative="1" as="geometry">
            <mxPoint y="119" as="sourcePoint" />
            <mxPoint y="19" as="targetPoint" />
          </mxGeometry>
        </mxCell>
        <mxCell id="Lr7Pyga0uyhA2rq1F_3K-26" value="" style="endArrow=none;dashed=1;html=1;dashPattern=1 3;strokeWidth=1;rounded=0;fillColor=#f8cecc;strokeColor=#ff0800;exitX=1;exitY=0.5;exitDx=0;exitDy=0;" parent="Lr7Pyga0uyhA2rq1F_3K-27" source="Lr7Pyga0uyhA2rq1F_3K-12" edge="1">
          <mxGeometry width="50" height="50" relative="1" as="geometry">
            <mxPoint x="184" y="79" as="sourcePoint" />
            <mxPoint x="139" y="19" as="targetPoint" />
          </mxGeometry>
        </mxCell>
        <mxCell id="lLeHS-UcZW8FNfTa1zkQ-36" value="" style="group" parent="1" vertex="1" connectable="0">
          <mxGeometry x="476" y="278" width="269" height="160" as="geometry" />
        </mxCell>
        <mxCell id="lLeHS-UcZW8FNfTa1zkQ-1" value="" style="endArrow=none;html=1;rounded=0;" parent="lLeHS-UcZW8FNfTa1zkQ-36" edge="1">
          <mxGeometry width="50" height="50" relative="1" as="geometry">
            <mxPoint x="169" y="40" as="sourcePoint" />
            <mxPoint x="169" as="targetPoint" />
          </mxGeometry>
        </mxCell>
        <mxCell id="lLeHS-UcZW8FNfTa1zkQ-2" value="" style="endArrow=none;html=1;rounded=0;" parent="lLeHS-UcZW8FNfTa1zkQ-36" edge="1">
          <mxGeometry width="50" height="50" relative="1" as="geometry">
            <mxPoint x="229" y="40" as="sourcePoint" />
            <mxPoint x="269" y="40" as="targetPoint" />
          </mxGeometry>
        </mxCell>
        <mxCell id="lLeHS-UcZW8FNfTa1zkQ-3" value="" style="endArrow=none;html=1;rounded=0;" parent="lLeHS-UcZW8FNfTa1zkQ-36" edge="1">
          <mxGeometry width="50" height="50" relative="1" as="geometry">
            <mxPoint x="229" y="40" as="sourcePoint" />
            <mxPoint x="229" as="targetPoint" />
          </mxGeometry>
        </mxCell>
        <mxCell id="lLeHS-UcZW8FNfTa1zkQ-4" value="" style="endArrow=none;html=1;rounded=0;" parent="lLeHS-UcZW8FNfTa1zkQ-36" edge="1">
          <mxGeometry width="50" height="50" relative="1" as="geometry">
            <mxPoint x="169" y="160" as="sourcePoint" />
            <mxPoint x="169" y="120" as="targetPoint" />
          </mxGeometry>
        </mxCell>
        <mxCell id="lLeHS-UcZW8FNfTa1zkQ-5" value="" style="endArrow=none;html=1;rounded=0;" parent="lLeHS-UcZW8FNfTa1zkQ-36" edge="1">
          <mxGeometry width="50" height="50" relative="1" as="geometry">
            <mxPoint x="269" y="120" as="sourcePoint" />
            <mxPoint x="229" y="120" as="targetPoint" />
          </mxGeometry>
        </mxCell>
        <mxCell id="lLeHS-UcZW8FNfTa1zkQ-6" value="" style="endArrow=none;html=1;rounded=0;" parent="lLeHS-UcZW8FNfTa1zkQ-36" edge="1">
          <mxGeometry width="50" height="50" relative="1" as="geometry">
            <mxPoint x="229" y="120" as="sourcePoint" />
            <mxPoint x="229" y="160" as="targetPoint" />
          </mxGeometry>
        </mxCell>
        <mxCell id="lLeHS-UcZW8FNfTa1zkQ-7" value="" style="endArrow=none;html=1;rounded=0;" parent="lLeHS-UcZW8FNfTa1zkQ-36" edge="1">
          <mxGeometry width="50" height="50" relative="1" as="geometry">
            <mxPoint x="149" y="120" as="sourcePoint" />
            <mxPoint x="149" y="40" as="targetPoint" />
          </mxGeometry>
        </mxCell>
        <mxCell id="lLeHS-UcZW8FNfTa1zkQ-8" value="" style="endArrow=none;html=1;rounded=0;" parent="lLeHS-UcZW8FNfTa1zkQ-36" edge="1">
          <mxGeometry width="50" height="50" relative="1" as="geometry">
            <mxPoint x="159" y="120" as="sourcePoint" />
            <mxPoint x="159" y="40" as="targetPoint" />
          </mxGeometry>
        </mxCell>
        <mxCell id="lLeHS-UcZW8FNfTa1zkQ-19" value="" style="endArrow=none;html=1;rounded=0;" parent="lLeHS-UcZW8FNfTa1zkQ-36" edge="1">
          <mxGeometry width="50" height="50" relative="1" as="geometry">
            <mxPoint x="149" y="40" as="sourcePoint" />
            <mxPoint x="169" y="40" as="targetPoint" />
          </mxGeometry>
        </mxCell>
        <mxCell id="lLeHS-UcZW8FNfTa1zkQ-21" value="" style="endArrow=none;html=1;rounded=0;" parent="lLeHS-UcZW8FNfTa1zkQ-36" edge="1">
          <mxGeometry width="50" height="50" relative="1" as="geometry">
            <mxPoint x="149" y="120" as="sourcePoint" />
            <mxPoint x="169" y="120" as="targetPoint" />
          </mxGeometry>
        </mxCell>
        <mxCell id="lLeHS-UcZW8FNfTa1zkQ-22" value="" style="rounded=0;whiteSpace=wrap;html=1;fillColor=#dae8fc;strokeColor=#6c8ebf;container=0;" parent="lLeHS-UcZW8FNfTa1zkQ-36" vertex="1">
          <mxGeometry x="97" y="85" width="50" height="30" as="geometry" />
        </mxCell>
        <mxCell id="lLeHS-UcZW8FNfTa1zkQ-23" value="" style="ellipse;whiteSpace=wrap;html=1;aspect=fixed;fillColor=#ffe6cc;strokeColor=#d79b00;container=0;" parent="lLeHS-UcZW8FNfTa1zkQ-36" vertex="1">
          <mxGeometry x="131" y="95" width="10" height="10" as="geometry" />
        </mxCell>
        <mxCell id="lLeHS-UcZW8FNfTa1zkQ-26" value="" style="rounded=0;whiteSpace=wrap;html=1;fillColor=#dae8fc;strokeColor=#6c8ebf;container=0;" parent="lLeHS-UcZW8FNfTa1zkQ-36" vertex="1">
          <mxGeometry x="40" y="85" width="50" height="30" as="geometry" />
        </mxCell>
        <mxCell id="lLeHS-UcZW8FNfTa1zkQ-27" value="" style="ellipse;whiteSpace=wrap;html=1;aspect=fixed;fillColor=#ffe6cc;strokeColor=#d79b00;container=0;" parent="lLeHS-UcZW8FNfTa1zkQ-36" vertex="1">
          <mxGeometry x="74" y="95" width="10" height="10" as="geometry" />
        </mxCell>
        <mxCell id="lLeHS-UcZW8FNfTa1zkQ-28" value="d&lt;sub&gt;b&lt;/sub&gt;" style="endArrow=none;html=1;rounded=0;" parent="lLeHS-UcZW8FNfTa1zkQ-36" edge="1">
          <mxGeometry width="50" height="50" relative="1" as="geometry">
            <mxPoint x="1.4700000000000273" y="19" as="sourcePoint" />
            <mxPoint x="140.47000000000003" y="19" as="targetPoint" />
          </mxGeometry>
        </mxCell>
        <mxCell id="lLeHS-UcZW8FNfTa1zkQ-29" value="" style="endArrow=none;html=1;rounded=0;" parent="lLeHS-UcZW8FNfTa1zkQ-36" edge="1">
          <mxGeometry width="50" height="50" relative="1" as="geometry">
            <mxPoint x="140.36" y="24" as="sourcePoint" />
            <mxPoint x="140.36" y="14" as="targetPoint" />
          </mxGeometry>
        </mxCell>
        <mxCell id="lLeHS-UcZW8FNfTa1zkQ-30" value="" style="endArrow=none;html=1;rounded=0;" parent="lLeHS-UcZW8FNfTa1zkQ-36" edge="1">
          <mxGeometry width="50" height="50" relative="1" as="geometry">
            <mxPoint x="1.4700000000000273" y="24" as="sourcePoint" />
            <mxPoint x="1.4700000000000273" y="14" as="targetPoint" />
          </mxGeometry>
        </mxCell>
        <mxCell id="lLeHS-UcZW8FNfTa1zkQ-31" value="" style="html=1;verticalLabelPosition=bottom;align=center;labelBackgroundColor=#ffffff;verticalAlign=top;strokeWidth=2;strokeColor=#b85450;shadow=0;dashed=0;shape=mxgraph.ios7.icons.flag;fillColor=#f8cecc;container=0;" parent="lLeHS-UcZW8FNfTa1zkQ-36" vertex="1">
          <mxGeometry x="1.4700000000000273" y="1" width="10" height="10" as="geometry" />
        </mxCell>
        <mxCell id="lLeHS-UcZW8FNfTa1zkQ-32" value="" style="endArrow=none;dashed=1;html=1;dashPattern=1 3;strokeWidth=1;rounded=0;fillColor=#f8cecc;strokeColor=#ff0800;exitX=1;exitY=0.5;exitDx=0;exitDy=0;" parent="lLeHS-UcZW8FNfTa1zkQ-36" edge="1">
          <mxGeometry width="50" height="50" relative="1" as="geometry">
            <mxPoint x="140.47000000000003" y="100" as="sourcePoint" />
            <mxPoint x="140.47000000000003" y="20" as="targetPoint" />
          </mxGeometry>
        </mxCell>
        <mxCell id="lLeHS-UcZW8FNfTa1zkQ-33" value="" style="endArrow=none;dashed=1;html=1;dashPattern=1 3;strokeWidth=1;rounded=0;fillColor=#f8cecc;strokeColor=#ff0800;exitX=1;exitY=0.5;exitDx=0;exitDy=0;" parent="lLeHS-UcZW8FNfTa1zkQ-36" edge="1">
          <mxGeometry width="50" height="50" relative="1" as="geometry">
            <mxPoint x="1.4700000000000273" y="100" as="sourcePoint" />
            <mxPoint x="1.4700000000000273" y="20" as="targetPoint" />
          </mxGeometry>
        </mxCell>
        <mxCell id="lLeHS-UcZW8FNfTa1zkQ-34" value="" style="endArrow=none;dashed=1;html=1;dashPattern=1 2;strokeWidth=5;rounded=0;entryX=0;entryY=0.5;entryDx=0;entryDy=0;" parent="lLeHS-UcZW8FNfTa1zkQ-36" target="lLeHS-UcZW8FNfTa1zkQ-26" edge="1">
          <mxGeometry width="50" height="50" relative="1" as="geometry">
            <mxPoint y="100" as="sourcePoint" />
            <mxPoint x="70" y="140" as="targetPoint" />
          </mxGeometry>
        </mxCell>
        <mxCell id="lLeHS-UcZW8FNfTa1zkQ-35" value="" style="shape=image;html=1;verticalAlign=top;verticalLabelPosition=bottom;labelBackgroundColor=#ffffff;imageAspect=0;aspect=fixed;image=https://cdn2.iconfinder.com/data/icons/circle-icons-1/64/traffic-128.png" parent="lLeHS-UcZW8FNfTa1zkQ-36" vertex="1">
          <mxGeometry x="180" y="59" width="40" height="40" as="geometry" />
        </mxCell>
      </root>
    </mxGraphModel>
  </diagram>
  <diagram id="AdmtrY_0D9zPu9L6WxAu" name="Components Diagram">
    <mxGraphModel dx="1639" dy="901" grid="1" gridSize="10" guides="1" tooltips="1" connect="1" arrows="1" fold="1" page="1" pageScale="1" pageWidth="850" pageHeight="1100" math="0" shadow="0">
      <root>
        <mxCell id="0" />
        <mxCell id="1" parent="0" />
        <mxCell id="8zSa8AkhDFFGI9oU3RUi-14" value="" style="rounded=1;whiteSpace=wrap;html=1;strokeWidth=2;arcSize=8;" parent="1" vertex="1">
          <mxGeometry x="1230" y="25" width="200" height="185" as="geometry" />
        </mxCell>
        <mxCell id="mN7nepTJ9cvUC0dFq-xV-5" value="" style="whiteSpace=wrap;html=1;aspect=fixed;" parent="1" vertex="1">
          <mxGeometry x="500" y="500" width="131" height="131" as="geometry" />
        </mxCell>
        <mxCell id="p-JEFDLRTnTwNjQ3M5GP-9" value="" style="rounded=0;whiteSpace=wrap;html=1;" parent="1" vertex="1">
          <mxGeometry x="10" y="20" width="480" height="131" as="geometry" />
        </mxCell>
        <mxCell id="p-JEFDLRTnTwNjQ3M5GP-4" value="" style="rounded=0;whiteSpace=wrap;html=1;fillColor=#fff2cc;strokeColor=#d6b656;" parent="1" vertex="1">
          <mxGeometry x="220" y="155" width="270" height="90" as="geometry" />
        </mxCell>
        <mxCell id="p-JEFDLRTnTwNjQ3M5GP-1" value="" style="rounded=0;whiteSpace=wrap;html=1;fillColor=#dae8fc;strokeColor=#6c8ebf;" parent="1" vertex="1">
          <mxGeometry x="230" y="95" width="120" height="50" as="geometry" />
        </mxCell>
        <mxCell id="p-JEFDLRTnTwNjQ3M5GP-2" value="" style="rounded=0;whiteSpace=wrap;html=1;fillColor=#dae8fc;strokeColor=#6c8ebf;" parent="1" vertex="1">
          <mxGeometry x="360" y="95" width="120" height="50" as="geometry" />
        </mxCell>
        <mxCell id="p-JEFDLRTnTwNjQ3M5GP-5" value="" style="rounded=0;whiteSpace=wrap;html=1;fillColor=default;strokeColor=#82b366;strokeWidth=3;" parent="1" vertex="1">
          <mxGeometry x="450" y="160" width="20" height="80" as="geometry" />
        </mxCell>
        <mxCell id="p-JEFDLRTnTwNjQ3M5GP-6" value="" style="rounded=0;whiteSpace=wrap;html=1;fillColor=default;strokeColor=#82b366;strokeWidth=3;" parent="1" vertex="1">
          <mxGeometry x="320" y="160" width="20" height="80" as="geometry" />
        </mxCell>
        <mxCell id="p-JEFDLRTnTwNjQ3M5GP-8" value="" style="rounded=0;whiteSpace=wrap;html=1;fillColor=#f8cecc;strokeColor=#b85450;" parent="1" vertex="1">
          <mxGeometry x="100" y="95" width="120" height="50" as="geometry" />
        </mxCell>
        <mxCell id="p-JEFDLRTnTwNjQ3M5GP-11" value="" style="endArrow=none;dashed=1;html=1;rounded=0;exitX=0;exitY=0.5;exitDx=0;exitDy=0;entryX=1;entryY=0.5;entryDx=0;entryDy=0;dashPattern=12 12;strokeWidth=2;sourcePerimeterSpacing=2;" parent="1" source="p-JEFDLRTnTwNjQ3M5GP-9" target="p-JEFDLRTnTwNjQ3M5GP-9" edge="1">
          <mxGeometry width="50" height="50" relative="1" as="geometry">
            <mxPoint x="400" y="215" as="sourcePoint" />
            <mxPoint x="450" y="165" as="targetPoint" />
          </mxGeometry>
        </mxCell>
        <mxCell id="_OTMsR6TYkasu3cVTDzk-1" value="" style="rounded=0;whiteSpace=wrap;html=1;" parent="1" vertex="1">
          <mxGeometry x="620" y="20" width="480" height="131" as="geometry" />
        </mxCell>
        <mxCell id="_OTMsR6TYkasu3cVTDzk-2" value="" style="rounded=0;whiteSpace=wrap;html=1;fillColor=#fff2cc;strokeColor=#d6b656;" parent="1" vertex="1">
          <mxGeometry x="940" y="155" width="160" height="90" as="geometry" />
        </mxCell>
        <mxCell id="_OTMsR6TYkasu3cVTDzk-3" value="" style="rounded=0;whiteSpace=wrap;html=1;fillColor=#f8cecc;strokeColor=#b85450;" parent="1" vertex="1">
          <mxGeometry x="840" y="95" width="120" height="50" as="geometry" />
        </mxCell>
        <mxCell id="_OTMsR6TYkasu3cVTDzk-4" value="" style="rounded=0;whiteSpace=wrap;html=1;fillColor=#dae8fc;strokeColor=#6c8ebf;" parent="1" vertex="1">
          <mxGeometry x="970" y="95" width="120" height="50" as="geometry" />
        </mxCell>
        <mxCell id="_OTMsR6TYkasu3cVTDzk-5" value="" style="rounded=0;whiteSpace=wrap;html=1;fillColor=default;strokeColor=#82b366;strokeWidth=3;" parent="1" vertex="1">
          <mxGeometry x="1060" y="160" width="20" height="80" as="geometry" />
        </mxCell>
        <mxCell id="_OTMsR6TYkasu3cVTDzk-7" value="" style="rounded=0;whiteSpace=wrap;html=1;fillColor=#f8cecc;strokeColor=#b85450;" parent="1" vertex="1">
          <mxGeometry x="710" y="95" width="120" height="50" as="geometry" />
        </mxCell>
        <mxCell id="_OTMsR6TYkasu3cVTDzk-8" value="" style="endArrow=none;dashed=1;html=1;rounded=0;exitX=0;exitY=0.5;exitDx=0;exitDy=0;entryX=1;entryY=0.5;entryDx=0;entryDy=0;dashPattern=12 12;strokeWidth=2;sourcePerimeterSpacing=2;" parent="1" source="_OTMsR6TYkasu3cVTDzk-1" target="_OTMsR6TYkasu3cVTDzk-1" edge="1">
          <mxGeometry width="50" height="50" relative="1" as="geometry">
            <mxPoint x="1010" y="215" as="sourcePoint" />
            <mxPoint x="1060" y="165" as="targetPoint" />
          </mxGeometry>
        </mxCell>
        <mxCell id="_OTMsR6TYkasu3cVTDzk-10" value="" style="rounded=0;whiteSpace=wrap;html=1;" parent="1" vertex="1">
          <mxGeometry x="20" y="500" width="480" height="131" as="geometry" />
        </mxCell>
        <mxCell id="_OTMsR6TYkasu3cVTDzk-11" value="" style="endArrow=none;dashed=1;html=1;rounded=0;exitX=0;exitY=0.5;exitDx=0;exitDy=0;entryX=1;entryY=0.5;entryDx=0;entryDy=0;dashPattern=12 12;strokeWidth=2;sourcePerimeterSpacing=2;" parent="1" source="_OTMsR6TYkasu3cVTDzk-10" target="_OTMsR6TYkasu3cVTDzk-10" edge="1">
          <mxGeometry width="50" height="50" relative="1" as="geometry">
            <mxPoint x="410" y="695" as="sourcePoint" />
            <mxPoint x="460" y="645" as="targetPoint" />
          </mxGeometry>
        </mxCell>
        <mxCell id="_OTMsR6TYkasu3cVTDzk-9" value="" style="shape=image;html=1;verticalAlign=top;verticalLabelPosition=bottom;labelBackgroundColor=#ffffff;imageAspect=0;aspect=fixed;image=https://cdn0.iconfinder.com/data/icons/strabo/24/traffic_light.png" parent="1" vertex="1">
          <mxGeometry x="485" y="480" width="30" height="30" as="geometry" />
        </mxCell>
        <mxCell id="_OTMsR6TYkasu3cVTDzk-13" value="" style="rounded=0;whiteSpace=wrap;html=1;fillColor=#f8cecc;strokeColor=#b85450;" parent="1" vertex="1">
          <mxGeometry x="375" y="575" width="120" height="50" as="geometry" />
        </mxCell>
        <mxCell id="_OTMsR6TYkasu3cVTDzk-14" value="" style="rounded=0;whiteSpace=wrap;html=1;fillColor=#f8cecc;strokeColor=#b85450;" parent="1" vertex="1">
          <mxGeometry x="244" y="575" width="120" height="50" as="geometry" />
        </mxCell>
        <mxCell id="_OTMsR6TYkasu3cVTDzk-15" value="" style="rounded=0;whiteSpace=wrap;html=1;fillColor=#f8cecc;strokeColor=#b85450;" parent="1" vertex="1">
          <mxGeometry x="112" y="575" width="120" height="50" as="geometry" />
        </mxCell>
        <mxCell id="_OTMsR6TYkasu3cVTDzk-16" value="" style="rounded=1;whiteSpace=wrap;html=1;" parent="1" vertex="1">
          <mxGeometry x="70" y="790" width="310" height="130" as="geometry" />
        </mxCell>
        <mxCell id="_OTMsR6TYkasu3cVTDzk-17" value="" style="ellipse;whiteSpace=wrap;html=1;aspect=fixed;" parent="1" vertex="1">
          <mxGeometry x="270" y="890" width="50" height="50" as="geometry" />
        </mxCell>
        <mxCell id="_OTMsR6TYkasu3cVTDzk-18" value="" style="ellipse;whiteSpace=wrap;html=1;aspect=fixed;" parent="1" vertex="1">
          <mxGeometry x="90" y="890" width="50" height="50" as="geometry" />
        </mxCell>
        <mxCell id="_OTMsR6TYkasu3cVTDzk-19" value="" style="whiteSpace=wrap;html=1;aspect=fixed;" parent="1" vertex="1">
          <mxGeometry x="85" y="810" width="40" height="40" as="geometry" />
        </mxCell>
        <mxCell id="_OTMsR6TYkasu3cVTDzk-20" value="" style="whiteSpace=wrap;html=1;aspect=fixed;" parent="1" vertex="1">
          <mxGeometry x="135" y="810" width="40" height="40" as="geometry" />
        </mxCell>
        <mxCell id="_OTMsR6TYkasu3cVTDzk-21" value="" style="whiteSpace=wrap;html=1;aspect=fixed;" parent="1" vertex="1">
          <mxGeometry x="185" y="810" width="40" height="40" as="geometry" />
        </mxCell>
        <mxCell id="_OTMsR6TYkasu3cVTDzk-22" value="" style="whiteSpace=wrap;html=1;aspect=fixed;" parent="1" vertex="1">
          <mxGeometry x="235" y="810" width="40" height="40" as="geometry" />
        </mxCell>
        <mxCell id="_OTMsR6TYkasu3cVTDzk-25" value="" style="rounded=1;whiteSpace=wrap;html=1;fillColor=#f8cecc;strokeColor=#b85450;" parent="1" vertex="1">
          <mxGeometry x="330" y="810" width="20" height="100" as="geometry" />
        </mxCell>
        <mxCell id="mN7nepTJ9cvUC0dFq-xV-15" value="" style="rounded=1;whiteSpace=wrap;html=1;" parent="1" vertex="1">
          <mxGeometry x="430" y="790" width="370" height="130" as="geometry" />
        </mxCell>
        <mxCell id="mN7nepTJ9cvUC0dFq-xV-16" value="" style="ellipse;whiteSpace=wrap;html=1;aspect=fixed;" parent="1" vertex="1">
          <mxGeometry x="690" y="890" width="50" height="50" as="geometry" />
        </mxCell>
        <mxCell id="mN7nepTJ9cvUC0dFq-xV-17" value="" style="ellipse;whiteSpace=wrap;html=1;aspect=fixed;" parent="1" vertex="1">
          <mxGeometry x="450" y="890" width="50" height="50" as="geometry" />
        </mxCell>
        <mxCell id="mN7nepTJ9cvUC0dFq-xV-18" value="" style="whiteSpace=wrap;html=1;aspect=fixed;" parent="1" vertex="1">
          <mxGeometry x="450" y="810" width="40" height="40" as="geometry" />
        </mxCell>
        <mxCell id="mN7nepTJ9cvUC0dFq-xV-19" value="" style="whiteSpace=wrap;html=1;aspect=fixed;" parent="1" vertex="1">
          <mxGeometry x="500" y="810" width="40" height="40" as="geometry" />
        </mxCell>
        <mxCell id="mN7nepTJ9cvUC0dFq-xV-20" value="" style="whiteSpace=wrap;html=1;aspect=fixed;" parent="1" vertex="1">
          <mxGeometry x="550" y="810" width="40" height="40" as="geometry" />
        </mxCell>
        <mxCell id="mN7nepTJ9cvUC0dFq-xV-22" value="" style="rounded=1;whiteSpace=wrap;html=1;fillColor=#d5e8d4;strokeColor=#82b366;" parent="1" vertex="1">
          <mxGeometry x="750" y="810" width="30" height="100" as="geometry" />
        </mxCell>
        <mxCell id="mN7nepTJ9cvUC0dFq-xV-23" value="" style="whiteSpace=wrap;html=1;aspect=fixed;" parent="1" vertex="1">
          <mxGeometry x="648" y="811" width="40" height="40" as="geometry" />
        </mxCell>
        <mxCell id="mN7nepTJ9cvUC0dFq-xV-24" value="" style="whiteSpace=wrap;html=1;aspect=fixed;" parent="1" vertex="1">
          <mxGeometry x="698" y="811" width="40" height="40" as="geometry" />
        </mxCell>
        <mxCell id="mN7nepTJ9cvUC0dFq-xV-25" value="" style="rounded=1;whiteSpace=wrap;html=1;fillColor=#f8cecc;strokeColor=#b85450;" parent="1" vertex="1">
          <mxGeometry x="604" y="810" width="30" height="100" as="geometry" />
        </mxCell>
        <mxCell id="mN7nepTJ9cvUC0dFq-xV-26" value="" style="rounded=1;whiteSpace=wrap;html=1;" parent="1" vertex="1">
          <mxGeometry x="850" y="790" width="400" height="130" as="geometry" />
        </mxCell>
        <mxCell id="mN7nepTJ9cvUC0dFq-xV-27" value="" style="ellipse;whiteSpace=wrap;html=1;aspect=fixed;" parent="1" vertex="1">
          <mxGeometry x="1140" y="890" width="50" height="50" as="geometry" />
        </mxCell>
        <mxCell id="mN7nepTJ9cvUC0dFq-xV-28" value="" style="ellipse;whiteSpace=wrap;html=1;aspect=fixed;" parent="1" vertex="1">
          <mxGeometry x="909" y="890" width="50" height="50" as="geometry" />
        </mxCell>
        <mxCell id="mN7nepTJ9cvUC0dFq-xV-30" value="" style="whiteSpace=wrap;html=1;aspect=fixed;" parent="1" vertex="1">
          <mxGeometry x="957" y="810" width="40" height="40" as="geometry" />
        </mxCell>
        <mxCell id="mN7nepTJ9cvUC0dFq-xV-31" value="" style="whiteSpace=wrap;html=1;aspect=fixed;" parent="1" vertex="1">
          <mxGeometry x="1005" y="810" width="40" height="40" as="geometry" />
        </mxCell>
        <mxCell id="mN7nepTJ9cvUC0dFq-xV-32" value="" style="rounded=1;whiteSpace=wrap;html=1;fillColor=#d5e8d4;strokeColor=#82b366;" parent="1" vertex="1">
          <mxGeometry x="1200" y="810" width="30" height="100" as="geometry" />
        </mxCell>
        <mxCell id="mN7nepTJ9cvUC0dFq-xV-33" value="" style="whiteSpace=wrap;html=1;aspect=fixed;" parent="1" vertex="1">
          <mxGeometry x="1098" y="811" width="40" height="40" as="geometry" />
        </mxCell>
        <mxCell id="mN7nepTJ9cvUC0dFq-xV-34" value="" style="whiteSpace=wrap;html=1;aspect=fixed;" parent="1" vertex="1">
          <mxGeometry x="1148" y="811" width="40" height="40" as="geometry" />
        </mxCell>
        <mxCell id="mN7nepTJ9cvUC0dFq-xV-35" value="" style="rounded=1;whiteSpace=wrap;html=1;fillColor=#f8cecc;strokeColor=#b85450;" parent="1" vertex="1">
          <mxGeometry x="1054" y="810" width="30" height="100" as="geometry" />
        </mxCell>
        <mxCell id="mN7nepTJ9cvUC0dFq-xV-36" value="" style="rounded=1;whiteSpace=wrap;html=1;fillColor=#f8cecc;strokeColor=#b85450;" parent="1" vertex="1">
          <mxGeometry x="870" y="810" width="30" height="100" as="geometry" />
        </mxCell>
        <mxCell id="mN7nepTJ9cvUC0dFq-xV-37" value="" style="whiteSpace=wrap;html=1;aspect=fixed;" parent="1" vertex="1">
          <mxGeometry x="909" y="810" width="40" height="40" as="geometry" />
        </mxCell>
        <mxCell id="mN7nepTJ9cvUC0dFq-xV-38" value="" style="whiteSpace=wrap;html=1;aspect=fixed;" parent="1" vertex="1">
          <mxGeometry x="284" y="810" width="40" height="40" as="geometry" />
        </mxCell>
        <mxCell id="8zSa8AkhDFFGI9oU3RUi-3" value="" style="whiteSpace=wrap;html=1;aspect=fixed;fillColor=#fff2cc;strokeColor=#d6b656;" parent="1" vertex="1">
          <mxGeometry x="1240" y="60.5" width="29" height="29" as="geometry" />
        </mxCell>
        <mxCell id="8zSa8AkhDFFGI9oU3RUi-4" value="" style="whiteSpace=wrap;html=1;aspect=fixed;fillColor=#ffffff;strokeColor=#82b366;strokeWidth=3;" parent="1" vertex="1">
          <mxGeometry x="1240" y="96.5" width="29" height="29" as="geometry" />
        </mxCell>
        <mxCell id="8zSa8AkhDFFGI9oU3RUi-5" value="" style="whiteSpace=wrap;html=1;aspect=fixed;fillColor=#dae8fc;strokeColor=#6c8ebf;" parent="1" vertex="1">
          <mxGeometry x="1240" y="133" width="29" height="29" as="geometry" />
        </mxCell>
        <mxCell id="8zSa8AkhDFFGI9oU3RUi-6" value="" style="whiteSpace=wrap;html=1;aspect=fixed;fillColor=#f8cecc;strokeColor=#b85450;" parent="1" vertex="1">
          <mxGeometry x="1240" y="169" width="29" height="29" as="geometry" />
        </mxCell>
        <mxCell id="8zSa8AkhDFFGI9oU3RUi-9" value="Bus Stop" style="text;html=1;align=center;verticalAlign=middle;resizable=0;points=[];autosize=1;strokeColor=none;fillColor=none;" parent="1" vertex="1">
          <mxGeometry x="1275" y="60" width="70" height="30" as="geometry" />
        </mxCell>
        <mxCell id="8zSa8AkhDFFGI9oU3RUi-10" value="Passenger Virtual Queue" style="text;html=1;align=center;verticalAlign=middle;resizable=0;points=[];autosize=1;strokeColor=none;fillColor=none;" parent="1" vertex="1">
          <mxGeometry x="1275" y="95" width="160" height="30" as="geometry" />
        </mxCell>
        <mxCell id="8zSa8AkhDFFGI9oU3RUi-11" value="&lt;b&gt;&lt;u&gt;Legend&lt;/u&gt;&lt;/b&gt;" style="text;html=1;align=center;verticalAlign=middle;resizable=0;points=[];autosize=1;strokeColor=none;fillColor=none;" parent="1" vertex="1">
          <mxGeometry x="1290" y="20" width="70" height="30" as="geometry" />
        </mxCell>
        <mxCell id="8zSa8AkhDFFGI9oU3RUi-12" value="Operational Bus" style="text;html=1;align=center;verticalAlign=middle;resizable=0;points=[];autosize=1;strokeColor=none;fillColor=none;" parent="1" vertex="1">
          <mxGeometry x="1275" y="132.5" width="110" height="30" as="geometry" />
        </mxCell>
        <mxCell id="8zSa8AkhDFFGI9oU3RUi-13" value="Bus in Queue" style="text;html=1;align=center;verticalAlign=middle;resizable=0;points=[];autosize=1;strokeColor=none;fillColor=none;" parent="1" vertex="1">
          <mxGeometry x="1275" y="168.5" width="100" height="30" as="geometry" />
        </mxCell>
        <mxCell id="C93DVyEpPyU-d4xvKC3O-1" value="" style="rounded=1;whiteSpace=wrap;html=1;fillColor=#d5e8d4;strokeColor=#82b366;" parent="1" vertex="1">
          <mxGeometry x="350" y="810" width="20" height="100" as="geometry" />
        </mxCell>
      </root>
    </mxGraphModel>
  </diagram>
  <diagram id="7Z_qs1OuLWq8Hy2wJX3g" name="Page-6">
    <mxGraphModel dx="1161" dy="638" grid="1" gridSize="10" guides="1" tooltips="1" connect="1" arrows="1" fold="1" page="1" pageScale="1" pageWidth="850" pageHeight="1100" math="0" shadow="0">
      <root>
        <mxCell id="0" />
        <mxCell id="1" parent="0" />
        <mxCell id="4UaV8vPkF3afkNTPwKoB-12" value="&lt;p style=&quot;line-height: 100%;&quot;&gt;&lt;font style=&quot;font-size: 14px;&quot;&gt;&lt;b&gt;1&lt;/b&gt;&lt;/font&gt;&lt;/p&gt;" style="edgeStyle=orthogonalEdgeStyle;rounded=0;orthogonalLoop=1;jettySize=auto;html=1;exitX=0.75;exitY=0;exitDx=0;exitDy=0;entryX=0.25;entryY=0;entryDx=0;entryDy=0;strokeWidth=2;" edge="1" parent="1" source="4UaV8vPkF3afkNTPwKoB-1" target="4UaV8vPkF3afkNTPwKoB-2">
          <mxGeometry relative="1" as="geometry" />
        </mxCell>
        <mxCell id="4UaV8vPkF3afkNTPwKoB-1" value="STATIONARY" style="rounded=0;whiteSpace=wrap;html=1;" vertex="1" parent="1">
          <mxGeometry x="80" y="270" width="120" height="60" as="geometry" />
        </mxCell>
        <mxCell id="4UaV8vPkF3afkNTPwKoB-6" value="&lt;font style=&quot;font-size: 14px;&quot;&gt;&lt;b&gt;2&lt;/b&gt;&lt;/font&gt;" style="edgeStyle=orthogonalEdgeStyle;rounded=0;orthogonalLoop=1;jettySize=auto;html=1;exitX=0.75;exitY=0;exitDx=0;exitDy=0;entryX=0.25;entryY=0;entryDx=0;entryDy=0;strokeWidth=2;" edge="1" parent="1" source="4UaV8vPkF3afkNTPwKoB-2" target="4UaV8vPkF3afkNTPwKoB-3">
          <mxGeometry relative="1" as="geometry" />
        </mxCell>
        <mxCell id="4UaV8vPkF3afkNTPwKoB-13" value="&lt;font style=&quot;font-size: 14px;&quot;&gt;&lt;b&gt;3&lt;/b&gt;&lt;/font&gt;" style="edgeStyle=orthogonalEdgeStyle;rounded=0;orthogonalLoop=1;jettySize=auto;html=1;exitX=0.5;exitY=0;exitDx=0;exitDy=0;entryX=0.5;entryY=0;entryDx=0;entryDy=0;strokeWidth=2;" edge="1" parent="1" source="4UaV8vPkF3afkNTPwKoB-2" target="4UaV8vPkF3afkNTPwKoB-4">
          <mxGeometry relative="1" as="geometry">
            <Array as="points">
              <mxPoint x="300" y="230" />
              <mxPoint x="620" y="230" />
            </Array>
          </mxGeometry>
        </mxCell>
        <mxCell id="4UaV8vPkF3afkNTPwKoB-2" value="ACCELERATING" style="rounded=0;whiteSpace=wrap;html=1;" vertex="1" parent="1">
          <mxGeometry x="240" y="270" width="120" height="60" as="geometry" />
        </mxCell>
        <mxCell id="4UaV8vPkF3afkNTPwKoB-9" value="&lt;font style=&quot;font-size: 14px;&quot;&gt;&lt;b&gt;5&lt;/b&gt;&lt;/font&gt;" style="edgeStyle=orthogonalEdgeStyle;rounded=0;orthogonalLoop=1;jettySize=auto;html=1;exitX=0.25;exitY=1;exitDx=0;exitDy=0;entryX=0.75;entryY=1;entryDx=0;entryDy=0;strokeWidth=2;" edge="1" parent="1" source="4UaV8vPkF3afkNTPwKoB-3" target="4UaV8vPkF3afkNTPwKoB-2">
          <mxGeometry relative="1" as="geometry" />
        </mxCell>
        <mxCell id="4UaV8vPkF3afkNTPwKoB-14" value="&lt;font style=&quot;font-size: 14px;&quot;&gt;&lt;b&gt;6&lt;/b&gt;&lt;/font&gt;" style="edgeStyle=orthogonalEdgeStyle;rounded=0;orthogonalLoop=1;jettySize=auto;html=1;exitX=0.5;exitY=1;exitDx=0;exitDy=0;entryX=0.408;entryY=1.017;entryDx=0;entryDy=0;entryPerimeter=0;strokeWidth=2;" edge="1" parent="1" source="4UaV8vPkF3afkNTPwKoB-3" target="4UaV8vPkF3afkNTPwKoB-1">
          <mxGeometry relative="1" as="geometry">
            <Array as="points">
              <mxPoint x="460" y="370" />
              <mxPoint x="129" y="370" />
            </Array>
          </mxGeometry>
        </mxCell>
        <mxCell id="4UaV8vPkF3afkNTPwKoB-3" value="DESCELERATING" style="rounded=0;whiteSpace=wrap;html=1;" vertex="1" parent="1">
          <mxGeometry x="400" y="270" width="120" height="60" as="geometry" />
        </mxCell>
        <mxCell id="4UaV8vPkF3afkNTPwKoB-8" value="&lt;font style=&quot;font-size: 14px;&quot;&gt;&lt;b&gt;4&lt;/b&gt;&lt;/font&gt;" style="edgeStyle=orthogonalEdgeStyle;rounded=0;orthogonalLoop=1;jettySize=auto;html=1;exitX=0.25;exitY=1;exitDx=0;exitDy=0;entryX=0.75;entryY=1;entryDx=0;entryDy=0;strokeWidth=2;" edge="1" parent="1" source="4UaV8vPkF3afkNTPwKoB-4" target="4UaV8vPkF3afkNTPwKoB-3">
          <mxGeometry relative="1" as="geometry" />
        </mxCell>
        <mxCell id="4UaV8vPkF3afkNTPwKoB-4" value="CRUISING" style="rounded=0;whiteSpace=wrap;html=1;" vertex="1" parent="1">
          <mxGeometry x="560" y="270" width="120" height="60" as="geometry" />
        </mxCell>
      </root>
    </mxGraphModel>
  </diagram>
</mxfile>
